<?xml version="1.0" encoding="UTF-8"?>
<svg version="1.1" xmlns="http://www.w3.org/2000/svg" width="500" height="500">
<path d="M0 0 C165 0 330 0 500 0 C500 165 500 330 500 500 C335 500 170 500 0 500 C0 335 0 170 0 0 Z " fill="#D3CCBF" transform="translate(0,0)"/>
<path d="M0 0 C1.9169165 -0.0151062 1.9169165 -0.0151062 3.87255859 -0.03051758 C35.27990944 0.25404973 63.51436059 14.44682229 85.25 36.4375 C85.73871582 36.91977051 86.22743164 37.40204102 86.73095703 37.89892578 C94.11418305 45.2188444 99.36735506 53.34233176 104.25 62.4375 C104.57629395 63.04078125 104.90258789 63.6440625 105.23876953 64.265625 C118.43786309 89.16191628 121.45844828 120.26463965 114.25 147.4375 C114.02183594 148.34757813 113.79367187 149.25765625 113.55859375 150.1953125 C112.88407619 152.6544108 112.10553063 155.0357351 111.25 157.4375 C110.79753906 158.74460937 110.79753906 158.74460937 110.3359375 160.078125 C105.01066998 174.10005243 96.68083165 186.73815189 86.25 197.4375 C85.2830197 198.61796945 84.32396832 199.80500286 83.375 201 C66.88728779 220.24319288 38.41466336 232.66451086 13.4152832 235.28076172 C-3.62090822 236.51395993 -19.4328313 235.58150738 -35.75 230.4375 C-36.96945313 230.05335938 -38.18890625 229.66921875 -39.4453125 229.2734375 C-69.32362249 218.69003613 -93.33286279 194.4832378 -106.90673828 166.26367188 C-120.25103977 137.36518457 -120.23306183 104.43893196 -109.46484375 74.78125 C-97.88265201 44.58886992 -73.77540401 21.41052736 -44.71875 8.04296875 C-30.12225251 1.94266488 -15.72610135 0.06356606 0 0 Z " fill="#85271C" transform="translate(249.75,132.5625)"/>
<path d="M0 0 C14.94847084 11.16693916 25.98660157 26.5989951 28.98828125 45.34375 C29.23675072 47.67315124 29.44563218 50.00714113 29.61328125 52.34375 C29.69578125 53.45234375 29.77828125 54.5609375 29.86328125 55.703125 C30.56328737 74.69079108 24.46519467 92.4387004 12 106.80859375 C-0.72916229 120.32942243 -17.05398603 129.91890585 -35.98828125 130.6796875 C-58.33556119 131.02057196 -76.91393353 126.19981764 -93.42895508 110.49951172 C-97.75656148 106.17565997 -101.27891959 101.6006442 -104.38671875 96.34375 C-105.18529297 95.00957031 -105.18529297 95.00957031 -106 93.6484375 C-114.99393295 77.2674281 -117.4539443 56.67812548 -112.55859375 38.59765625 C-108.83991473 28.27212418 -103.76456179 18.52427503 -96.38671875 10.34375 C-95.89171875 9.75722656 -95.39671875 9.17070312 -94.88671875 8.56640625 C-70.87550977 -17.90595165 -28.4272947 -19.72696064 0 0 Z " fill="#F9F8F7" transform="translate(292.38671875,196.65625)"/>
<path d="M0 0 C1.18207031 0.57363281 2.36414063 1.14726562 3.58203125 1.73828125 C12.53666921 6.20016711 20.36681361 11.55292277 28 18 C28.51691406 18.43183594 29.03382813 18.86367187 29.56640625 19.30859375 C45.03170572 32.37076398 56.31462956 48.86955536 63 68 C63.51849813 69.27178788 64.03901015 70.54275865 64.5625 71.8125 C73.75940748 96.30255079 72.91285802 122.08545267 66 147 C65.68933594 148.17691406 65.37867188 149.35382813 65.05859375 150.56640625 C56.08547399 180.78529837 31.42073897 205.11418638 5.03515625 220.7578125 C-12.38110556 230.08882514 -31.33791656 233.43854425 -50.875 233.4375 C-51.6450235 233.43923218 -52.415047 233.44096436 -53.20840454 233.44274902 C-68.32054936 233.42784301 -82.66285337 232.0039478 -96.24243164 224.89697266 C-98.3144926 223.83949912 -100.42666189 223.06792892 -102.625 222.3125 C-131.00755481 211.04614237 -151.78659659 184.27159253 -164.2109375 157.37890625 C-165.31589782 154.61650544 -166.17463258 151.85967551 -167 149 C-167.21285645 148.30213379 -167.42571289 147.60426758 -167.64501953 146.88525391 C-176.79628572 116.07365927 -173.94975377 82.21974834 -158.82666016 53.87817383 C-141.95200904 23.27885469 -115.48101307 2.33534122 -82.09619141 -7.39794922 C-81.05857666 -7.69596436 -81.05857666 -7.69596436 -80 -8 C-78.84886719 -8.34160156 -77.69773437 -8.68320313 -76.51171875 -9.03515625 C-51.77198463 -15.17015375 -22.66888042 -11.54463668 0 0 Z M-139.61181641 33.37353516 C-144.28685416 38.85104158 -148.20035139 44.89690682 -152 51 C-152.38317383 51.61359375 -152.76634766 52.2271875 -153.16113281 52.859375 C-159.49774852 63.24171953 -163.06555724 74.24156387 -166 86 C-166.268125 87.0725 -166.53625 88.145 -166.8125 89.25 C-172.69594747 119.32095374 -165.56219551 150.56843203 -149 176 C-131.98196723 200.79940204 -108.9100202 217.73104514 -80 226 C-78.96488281 226.3196875 -77.92976563 226.639375 -76.86328125 226.96875 C-60.11476008 231.4185416 -40.66044483 230.4284998 -24 226 C-23.35981934 225.83371094 -22.71963867 225.66742188 -22.06005859 225.49609375 C9.86826956 217.01746223 34.60920546 197.2061547 51.80224609 169.06835938 C58.76921336 157.03734701 62.57965679 144.61955839 65 131 C65.1750708 130.05656738 65.3501416 129.11313477 65.53051758 128.14111328 C67.80528192 112.92160311 67.07873987 95.85589806 63 81 C62.52433594 79.205625 62.52433594 79.205625 62.0390625 77.375 C53.40479018 48.47162033 33.08238452 22.8227507 6.5612793 8.37866211 C3.67126468 6.8478423 0.75973288 5.36550318 -2.16894531 3.91015625 C-3.62825593 3.18478158 -5.07765881 2.43948396 -6.5234375 1.6875 C-51.33847143 -20.29075419 -107.79009597 -1.61565123 -139.61181641 33.37353516 Z " fill="#EEEBE6" transform="translate(301,139)"/>
<path d="M0 0 C26.32133051 21.19254185 45.07096325 51.53629863 49.0234375 85.46728516 C50.68249675 107.89200745 48.25670728 129.86512352 39.0234375 150.46728516 C38.73484863 151.12390137 38.44625977 151.78051758 38.14892578 152.45703125 C24.54878234 182.91576245 -0.74409454 206.71452996 -31.59765625 219.19384766 C-62.12026441 230.69716588 -95.99139773 230.961055 -126.0546875 217.70556641 C-156.66587825 203.75542803 -182.09664246 178.96621703 -194.78515625 147.45947266 C-196.47672781 142.86937038 -197.76208072 138.20221275 -198.9765625 133.46728516 C-199.17121094 132.75942871 -199.36585938 132.05157227 -199.56640625 131.32226562 C-204.82080424 111.95740506 -204.47464105 91.94501132 -199.9765625 72.46728516 C-199.77160156 71.44248047 -199.56664062 70.41767578 -199.35546875 69.36181641 C-195.09865165 49.76988179 -184.809626 32.62599117 -171.9765625 17.46728516 C-170.99236328 16.20271484 -170.99236328 16.20271484 -169.98828125 14.91259766 C-168.16236482 12.69313419 -166.3486453 10.8851233 -164.1640625 9.02978516 C-161.24338873 6.55666334 -161.24338873 6.55666334 -158.39453125 4.00244141 C-145.85581573 -7.45699227 -128.29195869 -16.91825936 -111.9765625 -21.53271484 C-111.02910156 -21.80341797 -111.02910156 -21.80341797 -110.0625 -22.07958984 C-72.31958383 -32.3857736 -30.86259477 -23.93223443 0 0 Z M-108.9765625 -17.53271484 C-109.61803223 -17.3507959 -110.25950195 -17.16887695 -110.92041016 -16.98144531 C-130.41778481 -11.431315 -146.29673305 -1.41965227 -160.9765625 12.46728516 C-161.87375 13.28841797 -162.7709375 14.10955078 -163.6953125 14.95556641 C-184.9834389 35.13742781 -197.14441392 63.65330426 -198.33203125 92.73681641 C-198.73105284 108.52066304 -197.69902566 123.29468567 -192.9765625 138.46728516 C-192.615625 139.65580078 -192.2546875 140.84431641 -191.8828125 142.06884766 C-186.98689364 156.16209982 -178.95485045 169.4431629 -168.9765625 180.46728516 C-168.18507813 181.38896484 -167.39359375 182.31064453 -166.578125 183.26025391 C-148.97783755 203.38676558 -122.12608904 220.07329475 -94.9765625 222.46728516 C-77.18055169 223.44408545 -59.1098738 223.94994477 -41.9765625 218.46728516 C-40.39101563 218.03416016 -40.39101563 218.03416016 -38.7734375 217.59228516 C-8.75123613 208.78996434 16.56986114 184.27574503 31.2890625 157.40869141 C35.54395255 149.35707076 38.80190948 141.32364463 41.0234375 132.46728516 C41.20390625 131.81550293 41.384375 131.1637207 41.5703125 130.4921875 C47.16460472 110.1042053 46.91789077 88.73215735 41.0234375 68.46728516 C40.77335938 67.50048828 40.52328125 66.53369141 40.265625 65.53759766 C31.96566497 34.91360719 9.96642415 10.10726151 -16.828125 -5.75537109 C-25.9822983 -10.92304957 -34.80211599 -14.82995298 -44.9765625 -17.53271484 C-45.59644043 -17.71608398 -46.21631836 -17.89945313 -46.85498047 -18.08837891 C-66.91636484 -23.99143002 -89.01553277 -23.59827619 -108.9765625 -17.53271484 Z " fill="#3E4C21" transform="translate(326.9765625,149.53271484375)"/>
<path d="M0 0 C5.33365232 2.24512314 8.36361772 6.66514429 12 11 C12.53753906 11.56976563 13.07507813 12.13953125 13.62890625 12.7265625 C17.63923185 17.3652867 17.14164069 21.29926821 16.84375 27.2421875 C17.01422931 30.25114732 17.37720396 31.18617052 19.5 33.25 C20.7375 34.11625 20.7375 34.11625 22 35 C24.2256306 33.14739769 24.2256306 33.14739769 26 30 C25.97738336 27.5795918 25.97738336 27.5795918 25.6875 24.9375 C25.36184549 17.15330675 30.11530158 12.59158973 35 7 C35.95712891 5.8553125 35.95712891 5.8553125 36.93359375 4.6875 C38.2647117 3.10420383 39.62794688 1.54795737 41 0 C41.66 0.33 42.32 0.66 43 1 C42.27683594 1.99580078 42.27683594 1.99580078 41.5390625 3.01171875 C40.90742188 3.89472656 40.27578125 4.77773437 39.625 5.6875 C38.99851562 6.55761719 38.37203125 7.42773438 37.7265625 8.32421875 C35.71048958 11.26137323 35.71048958 11.26137323 34 16 C39.445 9.565 39.445 9.565 45 3 C45 7.21524569 42.76377411 9.79863696 40.5 13.1875 C40.07074219 13.84169922 39.64148438 14.49589844 39.19921875 15.16992188 C38.13889962 16.78396322 37.07023847 18.39251881 36 20 C39.36544114 16.72886194 42.41134404 13.37541012 45.3125 9.6875 C46.00988281 8.80449219 46.70726562 7.92148438 47.42578125 7.01171875 C47.94527344 6.34785156 48.46476562 5.68398437 49 5 C49.66 5.33 50.32 5.66 51 6 C50.04287109 7.48113281 50.04287109 7.48113281 49.06640625 8.9921875 C48.23171752 10.28642395 47.39708502 11.58069667 46.5625 12.875 C46.14162109 13.52597656 45.72074219 14.17695313 45.28710938 14.84765625 C43.01226502 18.34740511 43.01226502 18.34740511 41 22 C41.66 22 42.32 22 43 22 C43.2578125 21.43667969 43.515625 20.87335938 43.78125 20.29296875 C45.13715796 17.7419496 46.72353944 15.58953101 48.5 13.3125 C49.1084375 12.52488281 49.716875 11.73726562 50.34375 10.92578125 C52 9 52 9 54 8 C52.32959412 12.80359656 49.74884023 16.90408593 47.0625 21.1875 C46.61970703 21.91130859 46.17691406 22.63511719 45.72070312 23.38085938 C45.07198242 24.42016602 45.07198242 24.42016602 44.41015625 25.48046875 C44.01965088 26.10848389 43.62914551 26.73649902 43.22680664 27.38354492 C42 29 42 29 39 31 C37.329375 31.0928125 37.329375 31.0928125 35.625 31.1875 C31.22287254 32.17418374 30.25507313 33.4772092 27.75 37.015625 C26.68709893 39.82788409 26.98576279 41.1685878 28 44 C29.61548309 46.01358429 31.19852557 47.79755293 33 49.625 C33.9979633 50.68183146 34.99402234 51.74046398 35.98828125 52.80078125 C36.74165771 53.59863037 36.74165771 53.59863037 37.51025391 54.41259766 C39.78793702 56.83958809 42.00578616 59.29780599 44.1875 61.8125 C44.92355469 62.64394531 45.65960938 63.47539062 46.41796875 64.33203125 C48.46662267 67.78692168 48.50938744 70.051079 48 74 C45 76 45 76 42.1875 76.1875 C37.1510653 74.31118119 35.68922642 70.48959274 33 66 C31.05973601 62.96740776 29.0901677 59.95399327 27.125 56.9375 C26.14764884 55.42629101 25.17102772 53.91460951 24.1953125 52.40234375 C23.56133545 51.41995728 23.56133545 51.41995728 22.91455078 50.41772461 C22.46184814 49.71595093 22.46184814 49.71595093 22 49 C17.46165444 54.31478541 13.9904793 60.29422238 10.33398438 66.2265625 C9.82029297 67.0515625 9.30660156 67.8765625 8.77734375 68.7265625 C8.08499634 69.84925537 8.08499634 69.84925537 7.37866211 70.99462891 C6.04918302 72.92845948 4.78946019 74.48368811 3 76 C0.14519831 76.42822025 -1.34492892 76.40659584 -3.8125 74.875 C-5.62192656 72.0180107 -5.45146175 70.35259425 -5 67 C-3.29918357 64.30707226 -1.17621446 62.06576891 1 59.75 C2.19109372 58.42536829 3.38119744 57.09984573 4.5703125 55.7734375 C5.15458008 55.13116211 5.73884766 54.48888672 6.34082031 53.82714844 C8.56503413 51.37776407 10.7410375 48.90385947 12.875 46.375 C13.83019531 45.27285156 13.83019531 45.27285156 14.8046875 44.1484375 C16.24638712 42.0233027 16.24638712 42.0233027 15.79296875 39.36328125 C14.92481897 36.7759383 13.6846845 35.12416741 12 33 C12 32.34 12 31.68 12 31 C10.07942708 31.1953125 8.15885417 31.390625 6.23828125 31.5859375 C0.37178214 30.05020475 -3.32808084 21.51502605 -6.3125 16.625 C-6.76689453 15.88894531 -7.22128906 15.15289062 -7.68945312 14.39453125 C-8.79713636 12.59891843 -9.89916161 10.79981732 -11 9 C-10.01 9 -9.02 9 -8 9 C-6.35120843 10.94857185 -4.88923124 12.85108039 -3.4375 14.9375 C-0.77768144 19.06656809 -0.77768144 19.06656809 3 22 C-0.3 17.05 -3.6 12.1 -7 7 C-6.67 6.34 -6.34 5.68 -6 5 C-2.37 9.29 1.26 13.58 5 18 C3.99609759 13.98439035 2.82479402 12.04880628 0.4375 8.75 C-0.20316406 7.85796875 -0.84382812 6.9659375 -1.50390625 6.046875 C-2.24447266 5.03367188 -2.24447266 5.03367188 -3 4 C-2.67 3.34 -2.34 2.68 -2 2 C1.63 6.29 5.26 10.58 9 15 C6.18471388 9.83864212 3.34603999 4.83316888 0 0 Z " fill="#7F2A1F" transform="translate(229,218)"/>
<path d="M0 0 C11.03719295 8.45402013 19.89995088 20.9620333 22.38671875 34.828125 C23.94646183 53.48379553 20.31418351 69.98170262 8.38671875 84.828125 C7.83757812 85.52679688 7.2884375 86.22546875 6.72265625 86.9453125 C-1.47259674 96.22363857 -16.37032155 102.97153567 -28.61328125 103.828125 C-45.43203152 104.68200001 -60.26670248 100.51524273 -73.17578125 89.453125 C-77.7055615 85.03754089 -81.25558352 80.16991685 -84.61328125 74.828125 C-85.01289063 74.25707031 -85.4125 73.68601562 -85.82421875 73.09765625 C-93.25704046 61.78076605 -93.30371929 45.00615298 -90.921875 32.07421875 C-86.77493077 17.377726 -77.3300062 5.19996892 -64.61328125 -3.171875 C-63.58203125 -3.873125 -62.55078125 -4.574375 -61.48828125 -5.296875 C-41.17334126 -16.13758289 -18.41131591 -12.65949973 0 0 Z M-76.61328125 10.828125 C-81.80833969 17.57469415 -85.16261317 24.69875832 -87.61328125 32.828125 C-87.80664062 33.42753906 -88 34.02695313 -88.19921875 34.64453125 C-90.97930045 49.30552816 -87.89603017 64.52129545 -79.61328125 76.828125 C-71.91023887 86.72167473 -63.5398367 93.827325 -51.61328125 97.828125 C-50.74316406 98.18519531 -49.87304688 98.54226563 -48.9765625 98.91015625 C-34.67709908 102.81302954 -19.04782865 100.14113129 -6.36328125 93.015625 C5.71095831 85.24947411 14.25719034 74.32690651 18.0703125 60.31640625 C21.23979045 45.34335525 19.923798 30.68615003 12.08984375 17.4140625 C4.71185316 6.21170065 -7.17043102 -3.67864353 -20.48828125 -6.7890625 C-21.18953125 -6.91539062 -21.89078125 -7.04171875 -22.61328125 -7.171875 C-23.76828125 -7.39875 -24.92328125 -7.625625 -26.11328125 -7.859375 C-45.18971236 -9.56262778 -63.5933616 -3.75232169 -76.61328125 10.828125 Z " fill="#7F2D25" transform="translate(284.61328125,209.171875)"/>
<path d="M0 0 C0.66 0.99 1.32 1.98 2 3 C2.66 3 3.32 3 4 3 C4.33 2.01 4.66 1.02 5 0 C4.97381592 0.94504395 4.94763184 1.89008789 4.9206543 2.86376953 C4.45078015 21.4820865 4.24866013 39.06403579 10 57 C10.3609375 58.18335938 10.721875 59.36671875 11.09375 60.5859375 C15.97119296 74.6956832 24.03428802 87.9583439 34 99 C35.07701172 100.27230469 35.07701172 100.27230469 36.17578125 101.5703125 C53.50592757 121.70160148 80.29209004 137.18864106 107 140 C116.65568182 140.66410593 126.32365754 140.8846871 136 141 C136 141.33 136 141.66 136 142 C130.06 142.33 124.12 142.66 118 143 C118 143.66 118 144.32 118 145 C123.61 145 129.22 145 135 145 C135 145.33 135 145.66 135 146 C96.93645586 146.69557746 65.06585633 136.28727417 37 110 C20.6834379 93.8914394 8.69927858 74.21990635 3 52 C2.80535156 51.29214355 2.61070313 50.58428711 2.41015625 49.85498047 C-1.99308842 33.6270093 -2.44849037 16.62186555 0 0 Z " fill="#414E26" transform="translate(125,231)"/>
<path d="M0 0 C1.18207031 0.57363281 2.36414063 1.14726562 3.58203125 1.73828125 C12.53666921 6.20016711 20.36681361 11.55292277 28 18 C28.51691406 18.43183594 29.03382813 18.86367187 29.56640625 19.30859375 C45.03170572 32.37076398 56.31462956 48.86955536 63 68 C63.51849813 69.27178788 64.03901015 70.54275865 64.5625 71.8125 C67.006514 78.32056015 68.41924249 85.24261769 70 92 C70.27130737 93.15435547 70.27130737 93.15435547 70.5480957 94.33203125 C71.0674309 97.39810097 71.1123942 100.28482437 71.09765625 103.39453125 C71.09443359 104.59658203 71.09121094 105.79863281 71.08789062 107.03710938 C71.07951172 108.28298828 71.07113281 109.52886719 71.0625 110.8125 C71.05798828 112.07771484 71.05347656 113.34292969 71.04882812 114.64648438 C71.03706251 117.7643711 71.02062272 120.88216133 71 124 C70.67 124 70.34 124 70 124 C69.96241577 122.94872925 69.96241577 122.94872925 69.92407227 121.8762207 C69.80773455 118.68814512 69.68517956 115.50033758 69.5625 112.3125 C69.52318359 111.20970703 69.48386719 110.10691406 69.44335938 108.97070312 C69.38051758 107.3706543 69.38051758 107.3706543 69.31640625 105.73828125 C69.26141968 104.26935425 69.26141968 104.26935425 69.20532227 102.77075195 C69.00780667 100.10534823 68.58426967 97.60530212 68 95 C67.34 95 66.68 95 66 95 C65.67 95.66 65.34 96.32 65 97 C64.84144531 96.01902344 64.68289063 95.03804688 64.51953125 94.02734375 C59.10313159 62.01333924 42.80449271 34.3132842 16.34375 15.1640625 C10.39945858 11.31693931 4.16773121 8.05903849 -2.16894531 4.91015625 C-3.62825593 4.18478158 -5.07765881 3.43948396 -6.5234375 2.6875 C-19.58634707 -3.71883113 -34.63816843 -5.06661641 -48.9375 -5.5625 C-50.09830078 -5.60568359 -51.25910156 -5.64886719 -52.45507812 -5.69335938 C-55.30328232 -5.79884842 -58.15156529 -5.90096555 -61 -6 C-61 -6.33 -61 -6.66 -61 -7 C-48.625 -7.495 -48.625 -7.495 -36 -8 C-38.95810476 -9.47905238 -41.9547155 -9.12190903 -45.1953125 -9.09765625 C-45.90275604 -9.0962413 -46.61019958 -9.09482635 -47.33908081 -9.09336853 C-49.60109669 -9.087766 -51.86301398 -9.07521318 -54.125 -9.0625 C-55.65755065 -9.05748532 -57.19010286 -9.05292236 -58.72265625 -9.04882812 C-62.48180888 -9.03779577 -66.24088772 -9.02052952 -70 -9 C-70 -9.33 -70 -9.66 -70 -10 C-47.45527726 -15.06048325 -20.44860735 -10.41391273 0 0 Z " fill="#ECE9E4" transform="translate(301,139)"/>
<path d="M0 0 C4.48383992 1.46884411 5.43123338 3.11373308 7.6796875 7.08203125 C10.00367121 12.2581768 10.26982104 17.58727341 9.625 23.1875 C7.51850996 27.40048009 5.83557481 29.27681899 1.625 31.1875 C1.13850231 40.57510349 2.17976436 49.51531813 3.55786133 58.78735352 C5.47380157 72.07371033 5.47380157 72.07371033 4.625 77.1875 C3.26757812 78.97924805 3.26757812 78.97924805 1.625 80.1875 C-1.71692692 79.94296876 -2.98043557 79.58206443 -5.375 77.1875 C-5.75947601 70.29439447 -4.87445446 63.74646028 -3.875 56.9375 C-0.96905036 43.24010631 -0.96905036 43.24010631 -3.65234375 30.4765625 C-5.44307669 28.98363586 -5.44307669 28.98363586 -8.375 27.1875 C-11.02183129 22.00853343 -11.03528388 16.87548765 -10.375 11.1875 C-8.57104477 5.75786136 -6.15162474 0.34175693 0 0 Z " fill="#F7F5F3" transform="translate(340.375,222.8125)"/>
<path d="M0 0 C-0.33 0.66 -0.66 1.32 -1 2 C-3.21459961 2.59082031 -3.21459961 2.59082031 -6.15234375 3.078125 C-7.23016113 3.26608643 -8.30797852 3.45404785 -9.41845703 3.64770508 C-10.57974121 3.8464624 -11.74102539 4.04521973 -12.9375 4.25 C-40.02984919 9.20492658 -61.82139444 18.94065148 -82 38 C-82.82371094 38.74765625 -83.64742187 39.4953125 -84.49609375 40.265625 C-101.82670342 56.59587187 -112.92307579 80.04113909 -117.421875 103.13671875 C-118 106 -118 106 -119 109 C-120.485 109.495 -120.485 109.495 -122 110 C-123.98893733 86.5194898 -109.28615819 61.4789512 -94.7890625 44.11328125 C-94.19867188 43.41589844 -93.60828125 42.71851563 -93 42 C-92.34386719 41.15695313 -91.68773437 40.31390625 -91.01171875 39.4453125 C-89.18580232 37.22584903 -87.3720828 35.41783814 -85.1875 33.5625 C-82.26682623 31.08937818 -82.26682623 31.08937818 -79.41796875 28.53515625 C-57.56100385 8.55955036 -29.11327591 -0.52508914 0 0 Z " fill="#3B4B1D" transform="translate(248,125)"/>
<path d="M0 0 C0.66 0 1.32 0 2 0 C2 5.94 2 11.88 2 18 C2.66 18 3.32 18 4 18 C4 12.06 4 6.12 4 0 C4.66 0 5.32 0 6 0 C6 5.94 6 11.88 6 18 C6.99 18 7.98 18 9 18 C9 12.39 9 6.78 9 1 C9.66 1 10.32 1 11 1 C13.62891955 17.50116467 13.62891955 17.50116467 13 24 C11.125 26.5625 11.125 26.5625 9 28 C8.34 28 7.68 28 7 28 C7.26253502 32.30526866 7.52919103 36.61025697 7.79956055 40.91503906 C7.89084537 42.37753496 7.98103131 43.84009991 8.07006836 45.30273438 C8.19872279 47.4129546 8.33141218 49.52288959 8.46484375 51.6328125 C8.543396 52.90012207 8.62194824 54.16743164 8.70288086 55.47314453 C8.97457879 58.6982458 9.43605302 61.81540896 10 65 C10.13142203 66.72617787 10.21779769 68.456626 10.25 70.1875 C10.28867188 71.44626953 10.28867188 71.44626953 10.328125 72.73046875 C10 75 10 75 8.64453125 76.8125 C7 78 7 78 4.4375 77.8125 C2 77 2 77 0 75 C-0.49227721 67.49277258 0.78657466 60.3917055 2 53 C2.85711303 47.44289356 3.19482887 41.86781718 3.375 36.25 C3.42398438 34.99703125 3.47296875 33.7440625 3.5234375 32.453125 C2.8619505 28.08928542 1.0937439 27.01156633 -2 24 C-2.5234375 21.01953125 -2.5234375 21.01953125 -2.375 17.8125 C-2.32988281 16.67941406 -2.28476563 15.54632813 -2.23828125 14.37890625 C-2.15964844 13.26386719 -2.08101562 12.14882812 -2 11 C-1.93167969 9.99839844 -1.86335937 8.99679688 -1.79296875 7.96484375 C-1.2204206 1.2204206 -1.2204206 1.2204206 0 0 Z " fill="#ECE0DC" transform="translate(155,225)"/>
<path d="M0 0 C3.18500291 1.62145603 5.22111096 2.97328264 7.375 5.8125 C8.59336757 10.0767865 8.57421095 13.67024833 6.8125 17.75 C4.20242019 20.99009908 2.04963688 22.69441777 -2.1484375 23.3203125 C-6.17080409 23.52076266 -8.42120015 23.34481693 -11.9375 21.25 C-15.53964699 17.3203851 -16.50721808 14.5158339 -16.39453125 9.03515625 C-15.68647817 5.38272403 -13.62465368 3.56216192 -11 1 C-7.52817697 -0.73591152 -3.79591036 -0.46571673 0 0 Z " fill="#EDE3E0" transform="translate(197,165)"/>
<path d="M0 0 C3.76456766 2.06682146 7.05213977 4.10427955 9 8 C9.83686177 14.4856787 9.83686177 14.4856787 8.015625 17.78125 C4.57688689 22.11151281 1.99157978 23.74183225 -3.375 24.4375 C-8.03438085 23.87516093 -9.78879806 22.36056016 -13 19 C-15.06825051 15.33355591 -15.59571972 12.17003805 -15 8 C-10.82619649 1.97117271 -7.45116085 -0.8941393 0 0 Z " fill="#F1EAE6" transform="translate(219,152)"/>
<path d="M0 0 C3.78580423 2.03850997 7.05061257 4.10122513 9 8 C9.83931263 14.5046729 9.83931263 14.5046729 7.98046875 17.81640625 C5.30646416 21.16901019 3.20666882 22.74792734 -1.0859375 23.23828125 C-5.12225906 23.36915174 -7.39347675 23.361333 -10.9375 21.25 C-13.95236344 17.96105806 -14.83016289 16.12517087 -15.5 11.6875 C-14.83398123 6.77561156 -12.58855833 4.29106127 -9 1 C-5.89046621 -0.5547669 -3.43733239 -0.28644437 0 0 Z " fill="#F1EAE7" transform="translate(289,153)"/>
<path d="M0 0 C5.33365232 2.24512314 8.36361772 6.66514429 12 11 C12.53753906 11.56976563 13.07507813 12.13953125 13.62890625 12.7265625 C17.57097428 17.2863335 17.38031636 21.35346329 16.98046875 27.23046875 C17.00086259 30.1223156 17.49805148 31.57020683 19 34 C18.01 35.32 17.02 36.64 16 38 C12 33.25 12 33.25 12 31 C10.07942708 31.1953125 8.15885417 31.390625 6.23828125 31.5859375 C0.37178214 30.05020475 -3.32808084 21.51502605 -6.3125 16.625 C-6.76689453 15.88894531 -7.22128906 15.15289062 -7.68945312 14.39453125 C-8.79713636 12.59891843 -9.89916161 10.79981732 -11 9 C-10.01 9 -9.02 9 -8 9 C-6.35120843 10.94857185 -4.88923124 12.85108039 -3.4375 14.9375 C-0.77768144 19.06656809 -0.77768144 19.06656809 3 22 C-0.3 17.05 -3.6 12.1 -7 7 C-6.67 6.34 -6.34 5.68 -6 5 C-2.37 9.29 1.26 13.58 5 18 C3.99609759 13.98439035 2.82479402 12.04880628 0.4375 8.75 C-0.20316406 7.85796875 -0.84382812 6.9659375 -1.50390625 6.046875 C-2.24447266 5.03367188 -2.24447266 5.03367188 -3 4 C-2.67 3.34 -2.34 2.68 -2 2 C1.63 6.29 5.26 10.58 9 15 C6.18471388 9.83864212 3.34603999 4.83316888 0 0 Z " fill="#80291D" transform="translate(229,218)"/>
<path d="M0 0 C3.85544798 1.99657127 5.59805092 3.39707638 8 7 C8.42733494 12.29895331 8.51322472 15.73394141 5 20 C1.6685352 22.12002306 -1.35253156 22.37081728 -5.25 22.625 C-6.32765625 22.69976562 -7.4053125 22.77453125 -8.515625 22.8515625 C-9.33546875 22.90054688 -10.1553125 22.94953125 -11 23 C-11.33695862 20.27123692 -11.66968429 17.54206837 -12 14.8125 C-12.09539062 14.04357422 -12.19078125 13.27464844 -12.2890625 12.48242188 C-12.75192894 8.63071189 -13.12467468 4.88829149 -13 1 C-8.65450479 -0.4484984 -4.54143034 -0.52265295 0 0 Z " fill="#EFE7E4" transform="translate(243,147)"/>
<path d="M0 0 C0.33 0 0.66 0 1 0 C1.14695313 0.73863281 1.29390625 1.47726562 1.4453125 2.23828125 C4.70269092 16.97136641 12.47222095 28.98037169 24.89453125 37.7578125 C28.72900099 40.0200785 32.80204235 41.5524284 37 43 C37.86367187 43.3609375 38.72734375 43.721875 39.6171875 44.09375 C44.42821137 45.38261552 49.04228773 45.28945129 54 45.25 C54.97195312 45.25773437 55.94390625 45.26546875 56.9453125 45.2734375 C62.07534462 45.25945921 66.16406662 44.88831684 71 43 C73.375 43.375 73.375 43.375 75 44 C74.34 44 73.68 44 73 44 C73 44.99 73 45.98 73 47 C62.49345386 51.9249435 47.92759135 51.10926743 37 48 C22.61572955 42.52079802 12.21550585 34.07908531 4 21 C3.58878906 20.40574219 3.17757812 19.81148438 2.75390625 19.19921875 C-0.50556042 14.19659409 -1.20339266 8.79636659 -2 3 C-1.34 3 -0.68 3 0 3 C0 2.01 0 1.02 0 0 Z " fill="#7D332C" transform="translate(196,263)"/>
<path d="M0 0 C1.953125 0.5546875 1.953125 0.5546875 4 2 C4.609375 5.2578125 4.609375 5.2578125 4.75 9.125 C4.80671875 10.40632812 4.8634375 11.68765625 4.921875 13.0078125 C4.94765625 13.99523437 4.9734375 14.98265625 5 16 C6.98 13.36 8.96 10.72 11 8 C12.32 8.66 13.64 9.32 15 10 C13.40330002 13.51772964 11.29445992 16.46244846 9 19.5625 C6.94366773 22.34837662 4.9209375 25.11859376 3 28 C0.525 27.01 0.525 27.01 -2 26 C-2 21.38 -2 16.76 -2 12 C-4.31 14.64 -6.62 17.28 -9 20 C-10.32 19.34 -11.64 18.68 -13 18 C-11.70944264 15.25032269 -10.28915704 12.92126698 -8.3984375 10.546875 C-7.66367187 9.61875 -7.66367187 9.61875 -6.9140625 8.671875 C-6.40617187 8.03765625 -5.89828125 7.4034375 -5.375 6.75 C-4.859375 6.1003125 -4.34375 5.450625 -3.8125 4.78125 C-2.54485821 3.18496033 -1.27285639 1.59213474 0 0 Z " fill="#F1EBE8" transform="translate(307,163)"/>
<path d="M0 0 C0.33 0 0.66 0 1 0 C1.57693043 4.94303557 2.14628467 9.88686717 2.70898438 14.83154297 C2.90097291 16.50950992 3.09494059 18.18725176 3.29101562 19.86474609 C6.16547618 44.48831377 6.16547618 44.48831377 3.640625 47.76318359 C2 49 2 49 -0.5625 48.8125 C-3 48 -3 48 -5 46 C-5.40208223 39.86824592 -4.64905366 34.21346305 -3.64453125 28.171875 C-2.73768167 22.53118385 -2.07448304 16.85684121 -1.375 11.1875 C-1.23989014 10.09429443 -1.10478027 9.00108887 -0.96557617 7.87475586 C-0.64224004 5.25001504 -0.32031552 2.6251109 0 0 Z " fill="#F3EDEA" transform="translate(160,254)"/>
<path d="M0 0 C0.33 0 0.66 0 1 0 C1.08564209 0.81154541 1.17128418 1.62309082 1.25952148 2.45922852 C1.6508632 6.16045971 2.04416374 9.86148026 2.4375 13.5625 C2.57220703 14.83931641 2.70691406 16.11613281 2.84570312 17.43164062 C2.97783203 18.67236328 3.10996094 19.91308594 3.24609375 21.19140625 C3.36654053 22.32779541 3.4869873 23.46418457 3.61108398 24.63500977 C4.01161869 28.10052753 4.50492175 31.54691355 5 35 C5.12833105 36.74727662 5.2169496 38.49832877 5.25 40.25 C5.28867187 41.49523437 5.28867187 41.49523437 5.328125 42.765625 C5 45 5 45 3.64453125 46.80859375 C2 48 2 48 -0.5625 47.8125 C-3 47 -3 47 -5 45 C-5.39384137 37.8965339 -4.52053143 31.03150512 -3.5625 24 C-3.42779297 22.95199219 -3.29308594 21.90398437 -3.15429688 20.82421875 C-2.13160878 13.13160878 -2.13160878 13.13160878 -1 12 C-0.76572222 9.98405418 -0.58663876 7.961526 -0.4375 5.9375 C-0.35371094 4.83277344 -0.26992188 3.72804688 -0.18359375 2.58984375 C-0.12300781 1.73519531 -0.06242187 0.88054687 0 0 Z " fill="#F4EFED" transform="translate(340,255)"/>
<path d="M0 0 C3.25965521 -0.06009725 6.51872604 -0.09747987 9.77880859 -0.12548828 C10.84341309 -0.13870117 11.90801758 -0.15191406 13.00488281 -0.16552734 C14.00664551 -0.16649414 15.0084082 -0.16746094 16.04052734 -0.16845703 C16.9411792 -0.17256592 17.84183105 -0.1766748 18.76977539 -0.1809082 C21.09130859 0.06201172 21.09130859 0.06201172 24.09130859 2.06201172 C23.09130859 3.06201172 23.09130859 3.06201172 21.12719727 3.17211914 C20.26328369 3.17058838 19.39937012 3.16905762 18.50927734 3.16748047 C6.42739753 3.29937655 -5.02048863 4.30686597 -16.84619141 6.87451172 C-18.57542847 7.24709106 -18.57542847 7.24709106 -20.33959961 7.62719727 C-26.47927151 9.03412142 -32.15257305 10.7780491 -37.88745117 13.39672852 C-39.90869141 14.06201172 -39.90869141 14.06201172 -42.90869141 13.06201172 C-42.90869141 12.07201172 -42.90869141 11.08201172 -42.90869141 10.06201172 C-28.68295246 3.70472179 -15.54508104 0.33141267 0 0 Z " fill="#EBEAE4" transform="translate(241.90869140625,128.93798828125)"/>
<path d="M0 0 C6.11485027 -0.09706112 11.93303301 0.22959149 18 1 C18.3046875 3.6953125 18.3046875 3.6953125 18 7 C15.8828125 9.5546875 15.8828125 9.5546875 13.125 11.875 C12.22007812 12.65617188 11.31515625 13.43734375 10.3828125 14.2421875 C8 16 8 16 6 16 C6 16.66 6 17.32 6 18 C8.97 18.33 11.94 18.66 15 19 C14.67 20.32 14.34 21.64 14 23 C8.54230189 23.11138159 3.38490641 22.91657981 -2 22 C-2.3359375 19.83203125 -2.3359375 19.83203125 -2 17 C-0.24193658 14.98616481 1.35760458 13.38967739 3.375 11.6875 C3.88289063 11.23310547 4.39078125 10.77871094 4.9140625 10.31054688 C8.69754464 7 8.69754464 7 11 7 C11 6.34 11 5.68 11 5 C7.37 4.67 3.74 4.34 0 4 C0 2.68 0 1.36 0 0 Z " fill="#F3EEEB" transform="translate(255,147)"/>
<path d="M0 0 C1.82421875 1.96875 1.82421875 1.96875 3.6875 4.5 C4.31011719 5.3353125 4.93273437 6.170625 5.57421875 7.03125 C6.27998047 8.00578125 6.27998047 8.00578125 7 9 C6.34 10.32 5.68 11.64 5 13 C3.56770833 11.69791667 2.13541667 10.39583333 0.703125 9.09375 C-1.22360515 7.63975508 -1.22360515 7.63975508 -5 8 C-3.35 9.98 -1.7 11.96 0 14 C-0.66 15.32 -1.32 16.64 -2 18 C-4 18 -4 18 -6.625 15.5 C-7.40875 14.675 -8.1925 13.85 -9 13 C-9.99 13.495 -9.99 13.495 -11 14 C-9.84826645 16.46800047 -8.95216435 18.04783565 -7 20 C-7.375 22.125 -7.375 22.125 -8 24 C-8.99 24 -9.98 24 -11 24 C-12.82421875 22.03125 -12.82421875 22.03125 -14.6875 19.5 C-15.31011719 18.6646875 -15.93273437 17.829375 -16.57421875 16.96875 C-17.04472656 16.3190625 -17.51523437 15.669375 -18 15 C-16.3944949 10.59273111 -13.05761388 8.160685 -9.5625 5.25 C-8.97662109 4.74339844 -8.39074219 4.23679688 -7.78710938 3.71484375 C-3.37635824 0 -3.37635824 0 0 0 Z " fill="#F3EDEA" transform="translate(330,180)"/>
<path d="M0 0 C0.66 0 1.32 0 2 0 C3.04303775 18.30244694 2.13319622 32.71956078 -10.2734375 47.12109375 C-11.12808594 48.05115234 -11.12808594 48.05115234 -12 49 C-12.50789063 49.60972656 -13.01578125 50.21945312 -13.5390625 50.84765625 C-18.56869114 56.48430904 -25.16197836 59.95985254 -32 63 C-32.99 63 -33.98 63 -35 63 C-35 62.34 -35 61.68 -35 61 C-34.34 61 -33.68 61 -33 61 C-33 60.34 -33 59.68 -33 59 C-32.29875 58.64808594 -31.5975 58.29617188 -30.875 57.93359375 C-17.14591578 50.78924694 -8.02955293 40.88544453 -3 26 C-0.77536524 17.50350338 -0.44781159 8.7323261 0 0 Z " fill="#7B3129" transform="translate(304,246)"/>
<path d="M0 0 C6.61613844 9.92420766 9.45934595 21.50931463 12 33 C12.18095215 33.65589111 12.3619043 34.31178223 12.54833984 34.98754883 C14.37987727 41.98634963 14.2244555 48.8672769 14.125 56.0625 C14.11597656 57.30966797 14.10695313 58.55683594 14.09765625 59.84179688 C14.07426209 62.89473504 14.04148174 65.94726306 14 69 C13.67 69 13.34 69 13 69 C12.97494385 68.29915283 12.9498877 67.59830566 12.92407227 66.8762207 C12.80773455 63.68814512 12.68517956 60.50033758 12.5625 57.3125 C12.52318359 56.20970703 12.48386719 55.10691406 12.44335938 53.97070312 C12.40146484 52.90400391 12.35957031 51.83730469 12.31640625 50.73828125 C12.27974854 49.75899658 12.24309082 48.77971191 12.20532227 47.77075195 C12.00780667 45.10534823 11.58426967 42.60530212 11 40 C10.34 40 9.68 40 9 40 C8.67 40.66 8.34 41.32 8 42 C7.84144531 41.01902344 7.68289063 40.03804687 7.51953125 39.02734375 C5.4182267 26.64371744 2.56173265 14.85209631 -4 4 C-3.67 3.34 -3.34 2.68 -3 2 C-2.34 2 -1.68 2 -1 2 C-0.67 1.34 -0.34 0.68 0 0 Z " fill="#ECEAE2" transform="translate(358,194)"/>
<path d="M0 0 C0.99 0.66 1.98 1.32 3 2 C1.66666667 4.66666667 0.33333333 7.33333333 -1 10 C-0.01 10 0.98 10 2 10 C3.70532323 8.05990478 3.70532323 8.05990478 5 6 C6.32 6.66 7.64 7.32 9 8 C7.66666667 10.66666667 6.33333333 13.33333333 5 16 C7.475 17.98 7.475 17.98 10 20 C9.67 21.32 9.34 22.64 9 24 C5.79088808 23.40674464 3.98744159 22.42413843 1.546875 20.27734375 C0.928125 19.73916016 0.309375 19.20097656 -0.328125 18.64648438 C-0.96234375 18.08251953 -1.5965625 17.51855469 -2.25 16.9375 C-2.8996875 16.36966797 -3.549375 15.80183594 -4.21875 15.21679688 C-5.81799717 13.8174556 -7.40974119 12.40954759 -9 11 C-7.49053489 7.81913482 -5.92058175 5.70130094 -3.375 3.25 C-2.74335938 2.63640625 -2.11171875 2.0228125 -1.4609375 1.390625 C-0.73777344 0.70226562 -0.73777344 0.70226562 0 0 Z " fill="#F1ECE8" transform="translate(173,179)"/>
<path d="M0 0 C-1.52070379 3.37674225 -3.52828135 6.03309197 -5.8125 8.9375 C-11.76209905 16.9856849 -15.86414245 26.68660325 -16.31640625 36.765625 C-16.35830078 37.65507812 -16.40019531 38.54453125 -16.44335938 39.4609375 C-16.50233398 40.84152344 -16.50233398 40.84152344 -16.5625 42.25 C-16.60568359 43.18585938 -16.64886719 44.12171875 -16.69335938 45.0859375 C-16.7991805 47.39048641 -16.90126557 49.69513839 -17 52 C-17.66 52 -18.32 52 -19 52 C-22.58500892 44.82998215 -20.51210976 31.35087661 -18.375 23.9375 C-15.76522867 16.72171119 -8.90496236 0 0 0 Z " fill="#7E372E" transform="translate(213,214)"/>
<path d="M0 0 C4.16781843 3.57378454 6.29706936 7.9107177 8.8125 12.6875 C12.02001556 18.66330054 15.22806034 24.12853637 19.8203125 29.17578125 C21.35438436 31.54800495 21.2191757 33.23171566 21 36 C11.44647653 32.36879651 4.28758188 16.97870177 0.0625 8.1875 C-1.04380883 4.8685735 -1.09283628 3.27850883 0 0 Z " fill="#3B491F" transform="translate(136,297)"/>
<path d="M0 0 C-1.45703125 2.10546875 -1.45703125 2.10546875 -4 4 C-7.08569819 3.64336152 -9.71295872 3.10889815 -12.6875 2.3125 C-24.71609269 -0.54197235 -36.68294196 -0.82360756 -49 -1 C-49 -1.33 -49 -1.66 -49 -2 C-36.625 -2.495 -36.625 -2.495 -24 -3 C-26.95810476 -4.47905238 -29.9547155 -4.12190903 -33.1953125 -4.09765625 C-33.90275604 -4.0962413 -34.61019958 -4.09482635 -35.33908081 -4.09336853 C-37.60109669 -4.087766 -39.86301398 -4.07521318 -42.125 -4.0625 C-43.65755065 -4.05748532 -45.19010286 -4.05292236 -46.72265625 -4.04882812 C-50.48180888 -4.03779577 -54.24088772 -4.02052952 -58 -4 C-58 -4.33 -58 -4.66 -58 -5 C-38.7362421 -9.32402409 -18.55668616 -5.52293984 0 0 Z " fill="#DBD7CD" transform="translate(289,134)"/>
<path d="M0 0 C4.91511194 1.34048507 4.91511194 1.34048507 6.4375 3.9375 C6.97818562 7.56781776 6.90129841 9.25964079 4.8125 12.3125 C2.4375 13.9375 2.4375 13.9375 -0.5625 14.5 C-3.5625 13.9375 -3.5625 13.9375 -5.9375 11.75 C-7.70482156 8.69117423 -8.26948088 7.38403179 -7.5625 3.9375 C-5.24143877 0.40948693 -4.27159402 -0.07494025 0 0 Z " fill="#832F24" transform="translate(216.5625,157.0625)"/>
<path d="M0 0 C2.4375 1.625 2.4375 1.625 4 4 C4.44912849 7.14389944 4.504106 9.05480125 3 11.875 C-0.22120939 13.68693028 -3.40450234 13.66666519 -7 13 C-9.7286109 10.78300364 -9.94936082 9.41355329 -10.375 5.9375 C-10 3 -10 3 -8.9375 1.125 C-5.84902396 -0.66830867 -3.48856031 -0.42841969 0 0 Z " fill="#822C20" transform="translate(196,170)"/>
<path d="M0 0 C2.4375 1.5625 2.4375 1.5625 4 4 C3.78571429 10.21428571 3.78571429 10.21428571 1 13 C-6.10659898 13.67681895 -6.10659898 13.67681895 -9.0625 11.4375 C-10.40411569 7.9492992 -9.92678615 5.57474656 -9 2 C-5.50875983 -0.32749345 -4.10777749 -0.50299316 0 0 Z " fill="#852C20" transform="translate(289,158)"/>
<path d="M0 0 C0.66 0.33 1.32 0.66 2 1 C2 1.66 2 2.32 2 3 C2.66 3 3.32 3 4 3 C4.3125 6.1875 4.3125 6.1875 4 10 C1.40379704 13.14277201 -0.81298267 15.73790166 -4.98828125 16.23828125 C-9.15410332 16.3713075 -11.37869331 16.38831668 -15 14.125 C-18.22206562 10.70155528 -18.10020553 8.6094546 -18 4 C-17.01 3.67 -16.02 3.34 -15 3 C-15.33 4.98 -15.66 6.96 -16 9 C-11.57117061 10.10720735 -7.53942698 10.22325051 -3 10 C-0.70424397 7.70424397 -0.67660401 6.99157475 -0.375 3.875 C-0.25125 2.59625 -0.1275 1.3175 0 0 Z " fill="#EEE6E2" transform="translate(200,172)"/>
<path d="M0 0 C0.66 0.99 1.32 1.98 2 3 C2.66 3 3.32 3 4 3 C4.33 2.01 4.66 1.02 5 0 C4.67 9.57 4.34 19.14 4 29 C3.34 28.67 2.68 28.34 2 28 C1.67 29.65 1.34 31.3 1 33 C0.34 33 -0.32 33 -1 33 C-1.02927916 29.00001563 -1.04689219 25.00005924 -1.0625 21 C-1.07087891 19.87464844 -1.07925781 18.74929687 -1.08789062 17.58984375 C-1.10533416 11.62415603 -0.91781223 5.89712427 0 0 Z " fill="#4C5930" transform="translate(125,231)"/>
<path d="M0 0 C0.33 1.32 0.66 2.64 1 4 C0.10539062 4.4846875 -0.78921875 4.969375 -1.7109375 5.46875 C-8.69634886 9.31983091 -15.03359753 13.30044821 -21.109375 18.53125 C-23 20 -23 20 -25 20 C-25.33 18.35 -25.66 16.7 -26 15 C-5.52427184 0 -5.52427184 0 0 0 Z " fill="#ECEAE4" transform="translate(199,140)"/>
<path d="M0 0 C0 0.33 0 0.66 0 1 C-5.94 1 -11.88 1 -18 1 C-18 1.66 -18 2.32 -18 3 C-16.515 3.495 -16.515 3.495 -15 4 C-15.77601563 4.13535156 -16.55203125 4.27070313 -17.3515625 4.41015625 C-28.38837005 6.60961551 -38.33888918 10.64775108 -47 18 C-47 17.34 -47 16.68 -47 16 C-47.66 15.67 -48.32 15.34 -49 15 C-33.32023337 2.34241061 -19.82601468 -0.76091314 0 0 Z " fill="#7D382F" transform="translate(260,198)"/>
<path d="M0 0 C2 2 2 2 2.4375 5.75 C2.36538682 9.04917806 1.75645378 10.86377135 -0.3125 13.4375 C-4.22731221 17.17022792 -7.58419927 17.38410539 -12.76953125 17.3671875 C-16.29163574 16.78736645 -17.88636262 14.72727404 -20 12 C-19.34 12 -18.68 12 -18 12 C-17.34 10.68 -16.68 9.36 -16 8 C-15.01 9.485 -15.01 9.485 -14 11 C-12.02252878 11.36297936 -12.02252878 11.36297936 -9.875 11.1875 C-8.59625 11.125625 -7.3175 11.06375 -6 11 C-5.01 8.69 -4.02 6.38 -3 4 C-2.34 4 -1.68 4 -1 4 C-0.67 2.68 -0.34 1.36 0 0 Z " fill="#EBE3DF" transform="translate(296,159)"/>
<path d="M0 0 C0.66 0.99 1.32 1.98 2 3 C2.53625 3.474375 3.0725 3.94875 3.625 4.4375 C5 6 5 6 5 10 C5.66 10 6.32 10 7 10 C6.979375 9.05125 6.95875 8.1025 6.9375 7.125 C7 4 7 4 8 2 C7.01 1.67 6.02 1.34 5 1 C8.63 1.33 12.26 1.66 16 2 C16 2.66 16 3.32 16 4 C13.27546503 6.27803928 10.44331277 8.38614805 7.6015625 10.515625 C4.73351988 13.25447651 3.91403521 15.18968456 3 19 C1.68 18.67 0.36 18.34 -1 18 C-1 18.66 -1 19.32 -1 20 C-2.65 19.67 -4.3 19.34 -6 19 C-5.195625 18.21625 -4.39125 17.4325 -3.5625 16.625 C0.14836573 12.82362535 0.11787145 11.07991636 0.0625 5.875 C0.05347656 4.77929688 0.04445312 3.68359375 0.03515625 2.5546875 C0.02355469 1.71164063 0.01195312 0.86859375 0 0 Z " fill="#803025" transform="translate(250,150)"/>
<path d="M0 0 C0.33 1.32 0.66 2.64 1 4 C1.66 4 2.32 4 3 4 C3.33 5.32 3.66 6.64 4 8 C3.08476562 8.77085937 2.16953125 9.54171875 1.2265625 10.3359375 C0.02600156 11.3489108 -1.17451708 12.36193424 -2.375 13.375 C-3.27992188 14.13683594 -3.27992188 14.13683594 -4.203125 14.9140625 C-4.78320312 15.40390625 -5.36328125 15.89375 -5.9609375 16.3984375 C-6.76217041 17.07398682 -6.76217041 17.07398682 -7.57958984 17.76318359 C-8.76341678 18.79399612 -9.89004039 19.89004039 -11 21 C-11.99 19.68 -12.98 18.36 -14 17 C-13.34 17 -12.68 17 -12 17 C-11.76410156 16.46761719 -11.52820313 15.93523437 -11.28515625 15.38671875 C-9.62541243 12.30433736 -7.5559693 9.58692503 -5.4375 6.8125 C-5.02564453 6.26658203 -4.61378906 5.72066406 -4.18945312 5.15820312 C-1.16952328 1.16952328 -1.16952328 1.16952328 0 0 Z " fill="#80332A" transform="translate(322,174)"/>
<path d="M0 0 C6 0 6 0 8.375 1.0625 C10 3 10 3 10.5625 6.5 C10 10 10 10 7.8125 11.9375 C5 13 5 13 0 13 C0 8.71 0 4.42 0 0 Z " fill="#833326" transform="translate(236,152)"/>
<path d="M0 0 C0.33 0 0.66 0 1 0 C1 2.31 1 4.62 1 7 C1.99 7 2.98 7 4 7 C2.87548273 9.9719385 1.77706209 12.33440687 0 15 C-0.56817302 16.21714128 -1.11003752 17.44690856 -1.625 18.6875 C-2.07875 19.780625 -2.5325 20.87375 -3 22 C-4.65 22 -6.3 22 -8 22 C-7.360625 21.731875 -6.72125 21.46375 -6.0625 21.1875 C-3.66868314 20.11332248 -3.66868314 20.11332248 -3 17 C-5.97 16.67 -8.94 16.34 -12 16 C-12 15.34 -12 14.68 -12 14 C-9.24365823 11.68866892 -6.37829937 9.54893784 -3.50390625 7.38671875 C-0.81560272 4.82423286 -0.25098704 3.63609425 0 0 Z " fill="#893A30" transform="translate(273,149)"/>
<path d="M0 0 C9.24 0 18.48 0 28 0 C28 0.99 28 1.98 28 3 C26.44226915 4.55773085 24.9357775 4.12971776 22.7734375 4.1328125 C21.90589844 4.13410156 21.03835937 4.13539063 20.14453125 4.13671875 C19.23058594 4.13285156 18.31664062 4.12898438 17.375 4.125 C16.48425781 4.12886719 15.59351563 4.13273437 14.67578125 4.13671875 C9.67609474 4.12935544 4.92781053 3.8505536 0 3 C0 2.01 0 1.02 0 0 Z " fill="#F5F4EF" transform="translate(233,368)"/>
<path d="M0 0 C0.33 0 0.66 0 1 0 C1.05534912 0.55461914 1.11069824 1.10923828 1.16772461 1.68066406 C1.42128107 4.2040917 1.67934505 6.72703883 1.9375 9.25 C2.02451172 10.12269531 2.11152344 10.99539062 2.20117188 11.89453125 C2.28818359 12.73886719 2.37519531 13.58320313 2.46484375 14.453125 C2.543396 15.22817383 2.62194824 16.00322266 2.70288086 16.80175781 C2.9901359 18.92702022 3.47696042 20.92297093 4 23 C4.06624507 24.74886981 4.08552595 26.50002748 4.0625 28.25 C4.05347656 29.14203125 4.04445312 30.0340625 4.03515625 30.953125 C4.02355469 31.62859375 4.01195312 32.3040625 4 33 C2.515 33.495 2.515 33.495 1 34 C-1.17824008 26.96592038 -1.26757444 20.39141832 -1.1875 13.0625 C-1.18685547 11.91458984 -1.18621094 10.76667969 -1.18554688 9.58398438 C-1.14055525 1.14055525 -1.14055525 1.14055525 0 0 Z " fill="#F8F6F3" transform="translate(131,245)"/>
<path d="M0 0 C0.99 0 1.98 0 3 0 C4.5625 2.375 4.5625 2.375 6 5 C6.66 5.66 7.32 6.32 8 7 C6.68 7.33 5.36 7.66 4 8 C4 8.928125 4 9.85625 4 10.8125 C4 17 4 17 3 19 C1.35 17.68 -0.3 16.36 -2 15 C-0.66666667 12.33333333 0.66666667 9.66666667 2 7 C1.01 6.34 0.02 5.68 -1 5 C-1.268125 5.61875 -1.53625 6.2375 -1.8125 6.875 C-3 9 -3 9 -6 11 C-6.66 9.68 -7.32 8.36 -8 7 C-6.35 5.02 -4.7 3.04 -3 1 C-2.34 1.33 -1.68 1.66 -1 2 C-0.67 1.34 -0.34 0.68 0 0 Z " fill="#7F3129" transform="translate(179,180)"/>
<path d="M0 0 C1.07894531 -0.01224609 2.15789062 -0.02449219 3.26953125 -0.03710938 C4.30207031 -0.03904297 5.33460938 -0.04097656 6.3984375 -0.04296875 C7.33091309 -0.04707764 8.26338867 -0.05118652 9.22412109 -0.05541992 C11.625 0.1875 11.625 0.1875 14.625 2.1875 C12.67401915 4.13848085 8.97825071 3.44165108 6.30859375 3.50390625 C5.57753922 3.52468735 4.84648468 3.54546844 4.09327698 3.56687927 C1.74978344 3.63245024 -0.59382539 3.69129432 -2.9375 3.75 C-4.52279855 3.79317808 -6.10808529 3.83679213 -7.69335938 3.88085938 C-11.58712037 3.9881392 -15.48099772 4.0893849 -19.375 4.1875 C-19.375 3.5275 -19.375 2.8675 -19.375 2.1875 C-20.035 1.8575 -20.695 1.5275 -21.375 1.1875 C-14.22457174 0.25059902 -7.20786928 0.00440041 0 0 Z " fill="#FBFAF8" transform="translate(251.375,128.8125)"/>
<path d="M0 0 C16.335 0.495 16.335 0.495 33 1 C33 1.33 33 1.66 33 2 C27.06 2.33 21.12 2.66 15 3 C15 3.66 15 4.32 15 5 C20.61 5 26.22 5 32 5 C32 5.33 32 5.66 32 6 C20.12216874 6.21705681 8.73158438 5.99081432 -3 4 C-2.01 3.34 -1.02 2.68 0 2 C0 1.34 0 0.68 0 0 Z " fill="#586441" transform="translate(228,371)"/>
<path d="M0 0 C3.72476381 3.61189218 7.06789366 7.40663002 10.3515625 11.42578125 C11.98170556 13.34531938 11.98170556 13.34531938 15 13 C15 13.66 15 14.32 15 15 C13.68 15 12.36 15 11 15 C10.67 16.32 10.34 17.64 10 19 C9.34 19 8.68 19 8 19 C7.67 19.99 7.34 20.98 7 22 C5.53983725 19.58442212 4.08181403 17.16759629 2.625 14.75 C2.2125 14.06808594 1.8 13.38617188 1.375 12.68359375 C0.97539062 12.01972656 0.57578125 11.35585937 0.1640625 10.671875 C-0.20251465 10.0644043 -0.5690918 9.45693359 -0.94677734 8.83105469 C-2.04477389 6.92215943 -3.0337281 4.97837488 -4 3 C-0.08971309 4.30342897 1.28048603 6.768698 3.5625 10 C6.22980344 14.09182799 6.22980344 14.09182799 10 17 C9.278125 15.94039062 8.55625 14.88078125 7.8125 13.7890625 C6.87475838 12.4012049 5.93727152 11.01317512 5 9.625 C4.52304688 8.92632812 4.04609375 8.22765625 3.5546875 7.5078125 C2.87792969 6.50234375 2.87792969 6.50234375 2.1875 5.4765625 C1.76855469 4.85861816 1.34960938 4.24067383 0.91796875 3.60400391 C0 2 0 2 0 0 Z " fill="#81372D" transform="translate(222,223)"/>
<path d="M0 0 C2.89658948 2.52478844 4.36447887 5.32790115 6.0625 8.75 C6.56910156 9.75546875 7.07570313 10.7609375 7.59765625 11.796875 C10.61239924 18.68291748 11.2713005 24.53807097 11.125 31.9375 C11.11597656 32.81212891 11.10695313 33.68675781 11.09765625 34.58789062 C11.0742957 36.72538064 11.03843247 38.86272786 11 41 C10.67 41 10.34 41 10 41 C10 35.39 10 29.78 10 24 C9.01 24.33 8.02 24.66 7 25 C6.84144531 24.24976563 6.68289063 23.49953125 6.51953125 22.7265625 C5.04950214 16.2779265 3.17638426 10.80867246 -0.109375 5.05859375 C-1 3 -1 3 0 0 Z " fill="#833630" transform="translate(296,222)"/>
<path d="M0 0 C8.12872076 12.19308114 5.29404569 31.16175767 5 45 C4.67 45 4.34 45 4 45 C3.97494385 44.29915283 3.9498877 43.59830566 3.92407227 42.8762207 C3.80773455 39.68814512 3.68517956 36.50033758 3.5625 33.3125 C3.52318359 32.20970703 3.48386719 31.10691406 3.44335938 29.97070312 C3.40146484 28.90400391 3.35957031 27.83730469 3.31640625 26.73828125 C3.27974854 25.75899658 3.24309082 24.77971191 3.20532227 23.77075195 C3.00780667 21.10534823 2.58426967 18.60530212 2 16 C1.34 16 0.68 16 0 16 C-0.33 16.66 -0.66 17.32 -1 18 C-1.223293 15.93906592 -1.42802887 13.8761161 -1.625 11.8125 C-1.74101562 10.66394531 -1.85703125 9.51539063 -1.9765625 8.33203125 C-2.00023426 4.96669584 -1.47419799 2.98778294 0 0 Z " fill="#D0D1C5" transform="translate(367,218)"/>
<path d="M0 0 C0.66 0 1.32 0 2 0 C2.49079755 7.36196319 2.49079755 7.36196319 0.125 10.4375 C-3.35372061 12.9953828 -5.33777329 13.11235147 -9.625 13.0625 C-10.62789062 13.05347656 -11.63078125 13.04445312 -12.6640625 13.03515625 C-13.43492187 13.02355469 -14.20578125 13.01195312 -15 13 C-15 11.35 -15 9.7 -15 8 C-14.67 8.66 -14.34 9.32 -14 10 C-12.37276701 9.54965877 -10.74826336 9.08944646 -9.125 8.625 C-8.22007812 8.36976563 -7.31515625 8.11453125 -6.3828125 7.8515625 C-3.85430274 7.1395685 -3.85430274 7.1395685 -2 5 C-1.29289322 3.35008418 -0.62056011 1.68437744 0 0 Z " fill="#F2EFED" transform="translate(248,156)"/>
<path d="M0 0 C0.33 1.32 0.66 2.64 1 4 C-9.37357631 8.40774487 -9.37357631 8.40774487 -15 9 C-14.67 8.01 -14.34 7.02 -14 6 C-14.66 5.34 -15.32 4.68 -16 4 C-14.08594633 3.32586789 -12.16863974 2.6609668 -10.25 2 C-9.18265625 1.62875 -8.1153125 1.2575 -7.015625 0.875 C-4 0 -4 0 0 0 Z " fill="#E9E5E0" transform="translate(297,359)"/>
<path d="M0 0 C-0.66 0 -1.32 0 -2 0 C-2 0.99 -2 1.98 -2 3 C-9.60538362 6.56502357 -17.78749179 6.1358687 -26 6 C-26 5.67 -26 5.34 -26 5 C-21.545 4.505 -21.545 4.505 -17 4 C-20.63 3.67 -24.26 3.34 -28 3 C-28 2.67 -28 2.34 -28 2 C-26.77023438 1.95101563 -25.54046875 1.90203125 -24.2734375 1.8515625 C-22.64060434 1.77648971 -21.00779288 1.70094385 -19.375 1.625 C-18.56675781 1.5940625 -17.75851563 1.563125 -16.92578125 1.53125 C-11.350002 1.25926077 -5.13770685 -1.9760411 0 0 Z " fill="#965C52" transform="translate(271,307)"/>
<path d="M0 0 C0.66 0 1.32 0 2 0 C2.33 1.32 2.66 2.64 3 4 C4.65 4 6.3 4 8 4 C7.67 4.66 7.34 5.32 7 6 C6.34 6 5.68 6 5 6 C5 7.98 5 9.96 5 12 C4.05125 11.814375 3.1025 11.62875 2.125 11.4375 C-0.89868793 10.71313368 -0.89868793 10.71313368 -3 12 C-2.938125 11.236875 -2.87625 10.47375 -2.8125 9.6875 C-2.74101915 6.95474688 -2.74101915 6.95474688 -4.5 5.1875 C-4.995 4.795625 -5.49 4.40375 -6 4 C-4.35 3.67 -2.7 3.34 -1 3 C-0.67 2.01 -0.34 1.02 0 0 Z " fill="#E7D8D3" transform="translate(249,342)"/>
<path d="M0 0 C3 2 3 2 3.6875 4.375 C4.13668884 9.5855905 4.07611092 14.77371667 4 20 C3.01 20 2.02 20 1 20 C-0.96290189 12.95664616 -0.99939172 7.22533204 0 0 Z " fill="#39481A" transform="translate(126,258)"/>
<path d="M0 0 C1.75299712 0.59541454 3.50229748 1.20171914 5.25 1.8125 C6.22453125 2.14894531 7.1990625 2.48539062 8.203125 2.83203125 C10.85948302 3.94132042 12.79689939 5.1693283 15 7 C14.01 8.485 14.01 8.485 13 10 C9.14974121 9.39644592 6.13898841 8.23227397 2.6875 6.4375 C1.80449219 5.98246094 0.92148438 5.52742188 0.01171875 5.05859375 C-0.65214844 4.70925781 -1.31601563 4.35992187 -2 4 C-1.34 2.68 -0.68 1.36 0 0 Z " fill="#3D4822" transform="translate(192,358)"/>
<path d="M0 0 C0.33 0 0.66 0 1 0 C1.33 2.97 1.66 5.94 2 9 C3.98 6.36 5.96 3.72 8 1 C9.32 1.66 10.64 2.32 12 3 C10.34832443 6.5786304 8.21713508 9.74820188 6 13 C4.02 12.34 2.04 11.68 0 11 C0 7.37 0 3.74 0 0 Z " fill="#ECE3DB" transform="translate(310,170)"/>
<path d="M0 0 C2.16038971 8.45531833 1.98010831 13.78365617 -1 22 C-1.33 22 -1.66 22 -2 22 C-2.33 20.35 -2.66 18.7 -3 17 C-3.66 17.33 -4.32 17.66 -5 18 C-4.42934122 11.58008874 -2.32655091 5.98410537 0 0 Z " fill="#DFDDD4" transform="translate(137,203)"/>
<path d="M0 0 C2.66666667 1.33333333 5.33333333 2.66666667 8 4 C7.030625 4.309375 6.06125 4.61875 5.0625 4.9375 C2.15934208 5.69523342 2.15934208 5.69523342 1 7 C0.92851801 8.35243917 0.91600546 9.70834367 0.9375 11.0625 C0.958125 12.361875 0.97875 13.66125 1 15 C0.01 15 -0.98 15 -2 15 C-1.67 13.02 -1.34 11.04 -1 9 C-3.51083114 10.25541557 -3.87125446 11.50063488 -5 14 C-5.602537 7.01057082 -5.602537 7.01057082 -3.88671875 4.1328125 C-2.66254412 2.69138998 -1.33721771 1.33721771 0 0 Z " fill="#EAE1DD" transform="translate(186,166)"/>
<path d="M0 0 C2.77579761 2.77579761 2.86061387 5.30306937 3.625 9.125 C3.88539063 10.40632813 4.14578125 11.68765625 4.4140625 13.0078125 C4.60742188 13.99523437 4.80078125 14.98265625 5 16 C3.02 16.99 3.02 16.99 1 18 C-2.25968109 8.58997722 -2.25968109 8.58997722 -3 4 C-2.34 3.67 -1.68 3.34 -1 3 C-0.67 2.01 -0.34 1.02 0 0 Z " fill="#ECE9E1" transform="translate(135,275)"/>
<path d="M0 0 C3.60401481 -0.08701039 7.20776012 -0.14039388 10.8125 -0.1875 C12.34874023 -0.22520508 12.34874023 -0.22520508 13.91601562 -0.26367188 C15.39038086 -0.27817383 15.39038086 -0.27817383 16.89453125 -0.29296875 C18.25348511 -0.31653442 18.25348511 -0.31653442 19.63989258 -0.34057617 C22 0 22 0 25 3 C17.74 3 10.48 3 3 3 C3 2.34 3 1.68 3 1 C2.01 0.67 1.02 0.34 0 0 Z " fill="#2E3F0E" transform="translate(240,373)"/>
<path d="M0 0 C0.99 0.33 1.98 0.66 3 1 C2.71897086 4.37234971 2.19628348 5.78639739 -0.125 8.3125 C-3.64816654 10.38044558 -5.98077152 10.31523361 -10 10 C-10 9.01 -10 8.02 -10 7 C-8.906875 6.5875 -7.81375 6.175 -6.6875 5.75 C-3.48984058 4.39714409 -1.79346574 3.05944156 0 0 Z " fill="#F4F1EE" transform="translate(224,165)"/>
<path d="M0 0 C1.12894876 0.93274109 2.25300876 1.87140122 3.375 2.8125 C4.00148437 3.33457031 4.62796875 3.85664063 5.2734375 4.39453125 C7 6 7 6 9 9 C8.34 10.32 7.68 11.64 7 13 C5.32742645 11.5484451 3.66208242 10.08855591 2 8.625 C0.6078125 7.40683594 0.6078125 7.40683594 -0.8125 6.1640625 C-1.534375 5.44992187 -2.25625 4.73578125 -3 4 C-3 3.34 -3 2.68 -3 2 C-2.01 2 -1.02 2 0 2 C0 1.34 0 0.68 0 0 Z " fill="#E8E5DF" transform="translate(166,332)"/>
<path d="M0 0 C0.33 0 0.66 0 1 0 C1.18175781 0.79664063 1.36351562 1.59328125 1.55078125 2.4140625 C3.06663253 9.22600298 3.06663253 9.22600298 5.75 15.625 C6.1625 16.40875 6.575 17.1925 7 18 C6.67 18.66 6.34 19.32 6 20 C3 19 3 19 1.4375 17.125 C-0.64824425 12.59077336 -1.2687982 7.91195561 -2 3 C-1.34 3 -0.68 3 0 3 C0 2.01 0 1.02 0 0 Z " fill="#843E36" transform="translate(196,263)"/>
<path d="M0 0 C0 3.39012716 -0.62789244 4.39826879 -2.37109375 7.23046875 C-2.86287109 8.03291016 -3.35464844 8.83535156 -3.86132812 9.66210938 C-4.38146484 10.49548828 -4.90160156 11.32886719 -5.4375 12.1875 C-5.95376953 13.03248047 -6.47003906 13.87746094 -7.00195312 14.74804688 C-9.83084462 19.32974172 -9.83084462 19.32974172 -11 21 C-11.33 21 -11.66 21 -12 21 C-12.33 18.36 -12.66 15.72 -13 13 C-12.01 13.33 -11.02 13.66 -10 14 C-9.74347656 13.43667969 -9.48695313 12.87335938 -9.22265625 12.29296875 C-7.85516033 9.72836777 -6.24083892 7.59020365 -4.4375 5.3125 C-3.81746094 4.52488281 -3.19742187 3.73726562 -2.55859375 2.92578125 C-1 1 -1 1 0 0 Z " fill="#7C392C" transform="translate(282,226)"/>
<path d="M0 0 C0.66 0 1.32 0 2 0 C2 0.99 2 1.98 2 3 C2.66 3.33 3.32 3.66 4 4 C2.40427074 6.15258788 0.7991341 8.29687334 -0.8125 10.4375 C-1.26431641 11.04916016 -1.71613281 11.66082031 -2.18164062 12.29101562 C-5.66015625 16.88671875 -5.66015625 16.88671875 -9 18 C-7.26416804 13.10810992 -4.53857312 9.43751247 -1.4609375 5.3046875 C0.2676963 3.03248532 0.2676963 3.03248532 0 0 Z " fill="#E5D4CF" transform="translate(274,220)"/>
<path d="M0 0 C0.66 0.33 1.32 0.66 2 1 C2 1.66 2 2.32 2 3 C2.66 3 3.32 3 4 3 C4.48514851 9.30693069 4.48514851 9.30693069 2.25 12.5 C0 14 0 14 -2.25 13.75 C-3.11625 13.37875 -3.11625 13.37875 -4 13 C-3.525625 12.34 -3.05125 11.68 -2.5625 11 C-0.58682146 7.2066972 -0.35972537 4.24475932 0 0 Z " fill="#F6F4F0" transform="translate(200,172)"/>
<path d="M0 0 C0 0.66 0 1.32 0 2 C0.66 2.33 1.32 2.66 2 3 C-5.92 4.485 -5.92 4.485 -14 6 C-13.67 5.34 -13.34 4.68 -13 4 C-12.01 4 -11.02 4 -10 4 C-10 3.34 -10 2.68 -10 2 C-11.32 1.67 -12.64 1.34 -14 1 C-8.83430559 -0.79217969 -5.48946087 -1.12029814 0 0 Z " fill="#E9E4DF" transform="translate(232,131)"/>
<path d="M0 0 C-1.67923025 3.80133442 -4.11462834 6.97082702 -6.625 10.25 C-7.04523438 10.80429688 -7.46546875 11.35859375 -7.8984375 11.9296875 C-8.92938719 13.28866663 -9.96429911 14.64463835 -11 16 C-11.66 15.67 -12.32 15.34 -13 15 C-11.77898641 9.04755874 -6.65342511 0 0 0 Z " fill="#742D22" transform="translate(213,214)"/>
<path d="M0 0 C0.33 1.32 0.66 2.64 1 4 C2.98 4 4.96 4 7 4 C7.33 2.68 7.66 1.36 8 0 C12.455 0.99 12.455 0.99 17 2 C16.67 3.32 16.34 4.64 16 6 C10.54230189 6.11138159 5.38490641 5.91657981 0 5 C0 3.35 0 1.7 0 0 Z " fill="#E7D7D3" transform="translate(253,164)"/>
<path d="M0 0 C3.40343405 0.18564186 6.03739882 0.37896698 8.9375 2.25 C10.35440053 4.58371852 10.21718696 6.32136078 10 9 C9.01 9 8.02 9 7 9 C6.67 8.01 6.34 7.02 6 6 C4.16715557 4.87483915 4.16715557 4.87483915 2 4 C0.66666667 3.33333333 -0.66666667 2.66666667 -2 2 C-1.34 1.34 -0.68 0.68 0 0 Z " fill="#F5F2EF" transform="translate(286,154)"/>
<path d="M0 0 C2.4375 0.1875 2.4375 0.1875 3.4375 1.1875 C3.625 3.625 3.625 3.625 3.4375 6.1875 C2.7775 6.8475 2.1175 7.5075 1.4375 8.1875 C-1.1875 7.8125 -1.1875 7.8125 -3.5625 7.1875 C-4.1875 4.8125 -4.1875 4.8125 -4.5625 2.1875 C-2.5625 0.1875 -2.5625 0.1875 0 0 Z " fill="#E8DBD6" transform="translate(301.5625,328.8125)"/>
<path d="M0 0 C2.4375 0.1875 2.4375 0.1875 3.4375 1.1875 C3.625 3.625 3.625 3.625 3.4375 6.1875 C2.7775 6.8475 2.1175 7.5075 1.4375 8.1875 C-1.1875 7.8125 -1.1875 7.8125 -3.5625 7.1875 C-4.1875 4.8125 -4.1875 4.8125 -4.5625 2.1875 C-2.5625 0.1875 -2.5625 0.1875 0 0 Z " fill="#ECE3DF" transform="translate(199.5625,328.8125)"/>
<path d="M0 0 C0.33 0.99 0.66 1.98 1 3 C1.66 3 2.32 3 3 3 C2.66086666 6.16524451 2.02752805 6.97600118 -0.4375 9.125 C-1.283125 9.74375 -2.12875 10.3625 -3 11 C-3.66 11.66 -4.32 12.32 -5 13 C-5.99 11.68 -6.98 10.36 -8 9 C-7.34 9 -6.68 9 -6 9 C-5.7525 8.443125 -5.505 7.88625 -5.25 7.3125 C-3.78393985 4.60028873 -1.97010529 2.36412635 0 0 Z " fill="#833029" transform="translate(316,182)"/>
<path d="M0 0 C2.80271058 1.40135529 2.85132459 3.12016485 4 6 C5.16528109 7.75846717 6.37538787 9.48792466 7.625 11.1875 C11 15.78163265 11 15.78163265 11 18 C6.96001812 16.4782131 5.29099258 13.99078776 2.875 10.5 C0.15831731 6.56469261 0.15831731 6.56469261 -3 3 C-2.01 3 -1.02 3 0 3 C0 2.01 0 1.02 0 0 Z " fill="#E8DAD4" transform="translate(221,222)"/>
<path d="M0 0 C4.08378283 0.74250597 8.01939223 1.82923301 12 3 C11.01 3.99 10.02 4.98 9 6 C9.33 6.66 9.66 7.32 10 8 C6 6.66666667 2 5.33333333 -2 4 C-2 3.34 -2 2.68 -2 2 C-1.34 2 -0.68 2 0 2 C0 1.34 0 0.68 0 0 Z " fill="#E6E5DE" transform="translate(206,360)"/>
<path d="M0 0 C1 3 1 3 1 7 C0.34 7.66 -0.32 8.32 -1 9 C-1 9.66 -1 10.32 -1 11 C-1.66 11 -2.32 11 -3 11 C-3 12.65 -3 14.3 -3 16 C-4.5625 15 -4.5625 15 -6 13 C-6 7.86597056 -5.80711478 5.94491487 -2.4375 2 C-1.633125 1.34 -0.82875 0.68 0 0 Z " fill="#7D2215" transform="translate(247,260)"/>
<path d="M0 0 C1.71253527 0.05393368 3.4228674 0.18135927 5.12890625 0.33984375 C6.16337891 0.43330078 7.19785156 0.52675781 8.26367188 0.62304688 C9.35228516 0.72681641 10.44089844 0.83058594 11.5625 0.9375 C13.2012207 1.08735352 13.2012207 1.08735352 14.87304688 1.24023438 C17.58251057 1.48870048 20.29141348 1.74217463 23 2 C19.01395146 4.21514506 15.47986569 4.33278925 11 4.3125 C9.93265625 4.33666992 9.93265625 4.33666992 8.84375 4.36132812 C4.60672699 4.36528057 2.06372557 4.02383331 -1 1 C-0.67 0.67 -0.34 0.34 0 0 Z " fill="#78271D" transform="translate(235,308)"/>
<path d="M0 0 C0.33 0.66 0.66 1.32 1 2 C2.32 2.33 3.64 2.66 5 3 C2.69 5.64 0.38 8.28 -2 11 C-3.32 10.34 -4.64 9.68 -6 9 C-4.47291037 5.56404834 -2.40072955 2.88087546 0 0 Z " fill="#EDE4E0" transform="translate(300,172)"/>
<path d="M0 0 C0.99 0.33 1.98 0.66 3 1 C1.7508258 4.45925163 0.32472205 7.14693203 -2 10 C-4.475 9.01 -4.475 9.01 -7 8 C-7 6.02 -7 4.04 -7 2 C-6.401875 2.226875 -5.80375 2.45375 -5.1875 2.6875 C-4.465625 2.790625 -3.74375 2.89375 -3 3 C-1.22809091 1.64555699 -1.22809091 1.64555699 0 0 Z " fill="#F0EAE6" transform="translate(312,181)"/>
<path d="M0 0 C-0.99 0.66 -1.98 1.32 -3 2 C-2.01 2.66 -1.02 3.32 0 4 C-6.435 4.495 -6.435 4.495 -13 5 C-12.67 3.35 -12.34 1.7 -12 0 C-3.42857143 -1.28571429 -3.42857143 -1.28571429 0 0 Z " fill="#EAE6E1" transform="translate(273,367)"/>
<path d="M0 0 C0.87011719 0.00902344 1.74023438 0.01804688 2.63671875 0.02734375 C4.7579342 0.05065381 6.87900562 0.08651421 9 0.125 C9 0.455 9 0.785 9 1.125 C3.06 1.125 -2.88 1.125 -9 1.125 C-9 1.785 -9 2.445 -9 3.125 C-8.01 3.455 -7.02 3.785 -6 4.125 C-9.3 4.455 -12.6 4.785 -16 5.125 C-16 4.465 -16 3.805 -16 3.125 C-16.66 2.795 -17.32 2.465 -18 2.125 C-11.84497718 0.31553727 -6.39462981 -0.12769614 0 0 Z " fill="#92564E" transform="translate(251,197.875)"/>
<path d="M0 0 C3.42931954 3.7559214 4.56429083 8.23466745 6 13 C4.68 12.34 3.36 11.68 2 11 C1.67 11.99 1.34 12.98 1 14 C0.49384702 12.73160474 -0.00469099 11.46016898 -0.5 10.1875 C-0.7784375 9.47980469 -1.056875 8.77210938 -1.34375 8.04296875 C-2 6 -2 6 -2 3 C-1.34 3 -0.68 3 0 3 C0 2.01 0 1.02 0 0 Z " fill="#4B562D" transform="translate(362,193)"/>
<path d="M0 0 C-0.33 0.66 -0.66 1.32 -1 2 C-6.89259861 3.65155878 -12.90281525 4.27098599 -19 4 C-19 3.01 -19 2.02 -19 1 C-12.62641289 0.03794912 -6.44070471 -0.10655578 0 0 Z " fill="#30400F" transform="translate(248,125)"/>
<path d="M0 0 C1.95582488 2.93373731 3.56224304 5.78216298 5 9 C4.67 9.66 4.34 10.32 4 11 C3.34 10.67 2.68 10.34 2 10 C1.67 11.32 1.34 12.64 1 14 C0.13624104 12.38007835 -0.71575854 10.75388139 -1.5625 9.125 C-2.03816406 8.22007812 -2.51382812 7.31515625 -3.00390625 6.3828125 C-3.33261719 5.59648437 -3.66132813 4.81015625 -4 4 C-3.67 3.34 -3.34 2.68 -3 2 C-2.34 2 -1.68 2 -1 2 C-0.67 1.34 -0.34 0.68 0 0 Z " fill="#E5E2D8" transform="translate(358,194)"/>
<path d="M0 0 C0.33 0 0.66 0 1 0 C1 3.63 1 7.26 1 11 C1.66 11 2.32 11 3 11 C2.67 11.99 2.34 12.98 2 14 C1.34 14 0.68 14 0 14 C-0.33 14.66 -0.66 15.32 -1 16 C-1.66 16.33 -2.32 16.66 -3 17 C-3.40214229 10.83381819 -1.96818336 5.82254243 0 0 Z " fill="#F9F9F7" transform="translate(309,170)"/>
<path d="M0 0 C0.8353125 0.9590625 0.8353125 0.9590625 1.6875 1.9375 C4.22066561 4.19680987 5.68341424 4.63149047 9 5 C7.68 5.33 6.36 5.66 5 6 C5 6.99 5 7.98 5 9 C6.65 9 8.3 9 10 9 C10 9.33 10 9.66 10 10 C3.97463002 10.602537 3.97463002 10.602537 1.19921875 8.88671875 C-0.25599455 7.65378147 -1.63479157 6.33191067 -3 5 C-2.01 3.35 -1.02 1.7 0 0 Z " fill="#E8DBD8" transform="translate(209,166)"/>
<path d="M0 0 C0.86625 0.3403125 0.86625 0.3403125 1.75 0.6875 C1.09 2.9975 0.43 5.3075 -0.25 7.6875 C-2.23 7.6875 -4.21 7.6875 -6.25 7.6875 C-6.5 5.375 -6.5 5.375 -6.25 2.6875 C-4.11319077 0.39806154 -3.15626895 -0.43837069 0 0 Z " fill="#F5F3F1" transform="translate(260.25,160.3125)"/>
<path d="M0 0 C0.33 0 0.66 0 1 0 C2.15316726 6.34241995 2.09507063 12.56688704 2 19 C0.54296875 17.94921875 0.54296875 17.94921875 -1 16 C-1.51171875 12.64453125 -1.51171875 12.64453125 -1.6875 8.8125 C-1.75324219 7.54019531 -1.81898438 6.26789063 -1.88671875 4.95703125 C-1.92410156 3.98121094 -1.96148437 3.00539062 -2 2 C-1.34 2 -0.68 2 0 2 C0 1.34 0 0.68 0 0 Z " fill="#FBF9F7" transform="translate(369,232)"/>
<path d="M0 0 C3.5610073 1.48508376 5.60021023 3.48541171 8.125 6.375 C8.80820313 7.14585937 9.49140625 7.91671875 10.1953125 8.7109375 C11.80851927 10.75712617 12.94932355 12.62785421 14 15 C12.68 15.33 11.36 15.66 10 16 C8.51960151 13.70912072 7.04063324 11.41734017 5.5625 9.125 C5.14162109 8.47402344 4.72074219 7.82304687 4.28710938 7.15234375 C1.11328125 2.2265625 1.11328125 2.2265625 0 0 Z " fill="#8C4A42" transform="translate(229,218)"/>
<path d="M0 0 C4.44870215 -0.39253254 7.14243493 0.84694043 11 3 C11 3.99 11 4.98 11 6 C8 7 8 7 4.375 5.8125 C1 4 1 4 0.0625 1.8125 C0.041875 1.214375 0.02125 0.61625 0 0 Z " fill="#EFEFE8" transform="translate(195,356)"/>
<path d="M0 0 C1.32 0.66 2.64 1.32 4 2 C3.36191406 2.77085937 2.72382813 3.54171875 2.06640625 4.3359375 C0.82697266 5.84027344 0.82697266 5.84027344 -0.4375 7.375 C-1.26121094 8.37273437 -2.08492188 9.37046875 -2.93359375 10.3984375 C-4.98415834 12.79655295 -4.98415834 12.79655295 -6 15 C-6.66 15 -7.32 15 -8 15 C-6.51194289 9.19657726 -3.40902445 4.82409121 0 0 Z " fill="#E5D4CF" transform="translate(278,225)"/>
<path d="M0 0 C3.36295835 1.44126786 5.62927102 3.20592655 8 6 C8 6.99 8 7.98 8 9 C4.84526281 8.64947365 3.1766466 8.13480924 0.625 6.1875 C-1 4 -1 4 -0.75 1.75 C-0.5025 1.1725 -0.255 0.595 0 0 Z " fill="#F4F1EF" transform="translate(158,325)"/>
<path d="M0 0 C0.33 0 0.66 0 1 0 C2.98911307 5.77156038 3.2451155 10.86242741 3.125 16.9375 C3.11597656 17.81212891 3.10695313 18.68675781 3.09765625 19.58789062 C3.0742957 21.72538064 3.03843247 23.86272786 3 26 C2.67 26 2.34 26 2 26 C2 20.39 2 14.78 2 9 C1.01 9.33 0.02 9.66 -1 10 C-1.33 7.36 -1.66 4.72 -2 2 C-1.34 2 -0.68 2 0 2 C0 1.34 0 0.68 0 0 Z " fill="#91544C" transform="translate(304,237)"/>
<path d="M0 0 C0.721875 0.845625 1.44375 1.69125 2.1875 2.5625 C1.5275 3.8825 0.8675 5.2025 0.1875 6.5625 C-0.72 5.758125 -1.6275 4.95375 -2.5625 4.125 C-4.91559908 2.15107329 -6.68188046 0.92372533 -9.8125 0.5625 C-6.21321007 -3.03678993 -3.8996836 -3.37972578 0 0 Z " fill="#ECE2DE" transform="translate(334.8125,186.4375)"/>
<path d="M0 0 C1.98 0 3.96 0 6 0 C6 0.33 6 0.66 6 1 C11.94 1.33 17.88 1.66 24 2 C24 2.33 24 2.66 24 3 C23.410979 3.01981934 22.82195801 3.03963867 22.21508789 3.06005859 C19.49717649 3.15643277 16.77991897 3.26564712 14.0625 3.375 C12.67321289 3.42140625 12.67321289 3.42140625 11.25585938 3.46875 C5.27178678 3.72071095 -0.19061735 4.53424807 -6 6 C-6 5.34 -6 4.68 -6 4 C-4.02 3.34 -2.04 2.68 0 2 C0 1.34 0 0.68 0 0 Z " fill="#8E493F" transform="translate(234,181)"/>
<path d="M0 0 C0.99 0.66 1.98 1.32 3 2 C1.68 2.33 0.36 2.66 -1 3 C-1 3.928125 -1 4.85625 -1 5.8125 C-1 12 -1 12 -2 14 C-3.65 12.68 -5.3 11.36 -7 10 C-5.63055898 7.05043472 -4.12169591 4.47531189 -2 2 C-1.34 2 -0.68 2 0 2 C0 1.34 0 0.68 0 0 Z " fill="#863A32" transform="translate(184,185)"/>
<path d="M0 0 C4.09305456 1.65296434 7.58983503 3.13546142 11 6 C10.01 6 9.02 6 8 6 C8.33 6.99 8.66 7.98 9 9 C5.9168649 7.80100302 2.93720508 6.52299523 0 5 C0 3.35 0 1.7 0 0 Z " fill="#424E27" transform="translate(305,137)"/>
<path d="M0 0 C0 0.99 0 1.98 0 3 C0.061875 4.423125 0.061875 4.423125 0.125 5.875 C-0.00227923 9.05698065 -0.65475316 11.14135048 -2 14 C-2.33 13.34 -2.66 12.68 -3 12 C-3.66 12 -4.32 12 -5 12 C-4.34 8.37 -3.68 4.74 -3 1 C-2.01 0.67 -1.02 0.34 0 0 Z " fill="#38481A" transform="translate(370,281)"/>
<path d="M0 0 C0.66 0.33 1.32 0.66 2 1 C1.52949219 1.65226563 1.05898438 2.30453125 0.57421875 2.9765625 C-2.66443932 7.52275333 -5.71777926 11.8985654 -8 17 C-8.33 16.01 -8.66 15.02 -9 14 C-9.66 13.67 -10.32 13.34 -11 13 C-7.37 8.71 -3.74 4.42 0 0 Z " fill="#88463C" transform="translate(270,218)"/>
<path d="M0 0 C0.33 0 0.66 0 1 0 C1.09579384 8.07861415 1.12513633 15.98340366 0 24 C-0.33 24 -0.66 24 -1 24 C-2.07778728 15.51242517 -2.32822428 8.29429899 0 0 Z " fill="#92483E" transform="translate(158,254)"/>
<path d="M0 0 C1.45947705 0.06006078 2.91779272 0.1488689 4.375 0.25 C5.59316406 0.31960938 5.59316406 0.31960938 6.8359375 0.390625 C7.55007812 0.59171875 8.26421875 0.7928125 9 1 C9.66 2.32 10.32 3.64 11 5 C7.37 4.67 3.74 4.34 0 4 C0 2.68 0 1.36 0 0 Z " fill="#354217" transform="translate(218,369)"/>
<path d="M0 0 C4.3124594 1.59720719 6.42143673 4.31633819 9 8 C8.67 9.32 8.34 10.64 8 12 C5.03 8.7 2.06 5.4 -1 2 C-0.67 1.34 -0.34 0.68 0 0 Z " fill="#772B23" transform="translate(287,213)"/>
<path d="M0 0 C2.97 0 5.94 0 9 0 C9 1.65 9 3.3 9 5 C5.7 4.34 2.4 3.68 -1 3 C-0.67 2.01 -0.34 1.02 0 0 Z " fill="#F3EBE4" transform="translate(188,165)"/>
<path d="M0 0 C0.99 1.32 1.98 2.64 3 4 C0.03 6.97 -2.94 9.94 -6 13 C-6.33 11.68 -6.66 10.36 -7 9 C-4.6875 6.5 -4.6875 6.5 -2 4 C-0.70480005 1.83379456 -0.70480005 1.83379456 0 0 Z " fill="#3F5226" transform="translate(168,154)"/>
<path d="M0 0 C0.33 0 0.66 0 1 0 C1 2.31 1 4.62 1 7 C1.99 6.67 2.98 6.34 4 6 C4.66 6.66 5.32 7.32 6 8 C5.19152271 9.16945792 4.37810888 10.33550461 3.5625 11.5 C3.11003906 12.1496875 2.65757812 12.799375 2.19140625 13.46875 C1.79824219 13.9740625 1.40507812 14.479375 1 15 C0.67 15 0.34 15 0 15 C0 10.05 0 5.1 0 0 Z " fill="#873D35" transform="translate(311,165)"/>
<path d="M0 0 C8.57142857 0.85714286 8.57142857 0.85714286 12 3 C11.01 3.495 11.01 3.495 10 4 C10.66 4.66 11.32 5.32 12 6 C8.07765636 5.45269624 4.54220546 4.82170566 1 3 C0.67 2.01 0.34 1.02 0 0 Z " fill="#88443D" transform="translate(225,305)"/>
<path d="M0 0 C3.97497544 3.40712181 5.86793788 7.32760855 8 12 C4.54804233 10.5741914 2.8985744 8.90253666 0.75 5.875 C-0.03117188 4.78832031 -0.03117188 4.78832031 -0.828125 3.6796875 C-1.21484375 3.12539062 -1.6015625 2.57109375 -2 2 C-1.34 2 -0.68 2 0 2 C0 1.34 0 0.68 0 0 Z " fill="#E8DAD2" transform="translate(228,225)"/>
<path d="M0 0 C4.42857143 5.14285714 4.42857143 5.14285714 5 9 C3.02 9.99 3.02 9.99 1 11 C0.01 8.69 -0.98 6.38 -2 4 C-1.34 4 -0.68 4 0 4 C0 2.68 0 1.36 0 0 Z " fill="#444F28" transform="translate(141,305)"/>
<path d="M0 0 C2.9156164 3.54039134 5.50127818 7.1626772 8 11 C7.67 11.66 7.34 12.32 7 13 C5.49405319 11.38050958 3.99539332 9.75424026 2.5 8.125 C1.6646875 7.22007812 0.829375 6.31515625 -0.03125 5.3828125 C-2 3 -2 3 -2 1 C-1.34 0.67 -0.68 0.34 0 0 Z " fill="#E7D7D0" transform="translate(231,221)"/>
<path d="M0 0 C0.33 0.66 0.66 1.32 1 2 C3.64 1.67 6.28 1.34 9 1 C9.33 2.32 9.66 3.64 10 5 C6.7 5 3.4 5 0 5 C0 3.35 0 1.7 0 0 Z " fill="#FAF9F9" transform="translate(233,164)"/>
<path d="M0 0 C2.67927341 4.01891012 2.15601248 6.24161923 2 11 C1.67 11 1.34 11 1 11 C1 9.02 1 7.04 1 5 C-1.5 6 -1.5 6 -3 10 C-3.33 7.03 -3.66 4.06 -4 1 C-2 0 -2 0 0 0 Z " fill="#E5DAD6" transform="translate(249,151)"/>
<path d="M0 0 C1.89213369 2.38573379 3.02391783 4.07175348 4 7 C2.5625 9.1875 2.5625 9.1875 1 11 C-3 6.25 -3 6.25 -3 4 C-2.01 4 -1.02 4 0 4 C0 2.68 0 1.36 0 0 Z " fill="#82362E" transform="translate(244,245)"/>
<path d="M0 0 C0.25 2.8125 0.25 2.8125 0 6 C-2 7.875 -2 7.875 -4 9 C-4.99 7.68 -5.98 6.36 -7 5 C-2.25 0 -2.25 0 0 0 Z " fill="#EDE7E4" transform="translate(266,154)"/>
<path d="M0 0 C0.66 0.66 1.32 1.32 2 2 C1.9765625 4.1640625 1.9765625 4.1640625 1.625 6.625 C1.51414063 7.44226563 1.40328125 8.25953125 1.2890625 9.1015625 C1.19367188 9.72804687 1.09828125 10.35453125 1 11 C-1.31 11 -3.62 11 -6 11 C-6 10.34 -6 9.68 -6 9 C-4.35 9 -2.7 9 -1 9 C-0.67 6.03 -0.34 3.06 0 0 Z " fill="#822418" transform="translate(243,238)"/>
<path d="M0 0 C1.010625 0.61875 2.02125 1.2375 3.0625 1.875 C6.63227085 3.92943955 10.009341 5.02269575 14 6 C14 6.33 14 6.66 14 7 C9.71 6.67 5.42 6.34 1 6 C0.67 4.02 0.34 2.04 0 0 Z " fill="#7A2B20" transform="translate(204,170)"/>
<path d="M0 0 C0 4.78571429 0 4.78571429 -1 7 C-2.99571323 7.67939174 -4.99594773 8.34561559 -7 9 C-8.42055068 11.00136244 -8.42055068 11.00136244 -9 13 C-9.66 12.67 -10.32 12.34 -11 12 C-7.37 8.04 -3.74 4.08 0 0 Z " fill="#803A32" transform="translate(168,166)"/>
<path d="M0 0 C3.25543229 0.34879632 4.01873107 1.02133261 6.25 3.5625 C6.8275 4.366875 7.405 5.17125 8 6 C7.01 6.66 6.02 7.32 5 8 C2.5 5.6875 2.5 5.6875 0 3 C0 2.01 0 1.02 0 0 Z " fill="#823A34" transform="translate(207,291)"/>
<path d="M0 0 C3.465 1.98 3.465 1.98 7 4 C7 4.99 7 5.98 7 7 C3.00095031 7 1.19799578 5.27413033 -2 3 C-1.34 2.67 -0.68 2.34 0 2 C0 1.34 0 0.68 0 0 Z " fill="#843D36" transform="translate(280,207)"/>
<path d="M0 0 C3.71888239 0.50712033 6.73454239 1.11608215 10 3 C10 3.99 10 4.98 10 6 C6.05879291 5.43697042 3.2491277 4.3208055 0 2 C0 1.34 0 0.68 0 0 Z " fill="#7D2E25" transform="translate(270,203)"/>
<path d="M0 0 C1.98 0 3.96 0 6 0 C6.66 0.66 7.32 1.32 8 2 C7.01 2 6.02 2 5 2 C5 2.66 5 3.32 5 4 C4.34 4 3.68 4 3 4 C3 3.34 3 2.68 3 2 C2.34 2 1.68 2 1 2 C1.185625 2.515625 1.37125 3.03125 1.5625 3.5625 C2.15419517 6.85908739 1.567267 9.72245735 1 13 C0.67 13 0.34 13 0 13 C0 8.71 0 4.42 0 0 Z " fill="#89473D" transform="translate(236,152)"/>
<path d="M0 0 C-0.66 0 -1.32 0 -2 0 C-2 0.99 -2 1.98 -2 3 C-6.43076923 5.09230769 -6.43076923 5.09230769 -9.3125 4.625 C-9.869375 4.41875 -10.42625 4.2125 -11 4 C-10.01 4 -9.02 4 -8 4 C-8 3.34 -8 2.68 -8 2 C-8.66 1.67 -9.32 1.34 -10 1 C-3.71428571 -1.42857143 -3.71428571 -1.42857143 0 0 Z " fill="#904D45" transform="translate(271,307)"/>
<path d="M0 0 C0.33 0 0.66 0 1 0 C1 3.63 1 7.26 1 11 C0.01 11.33 -0.98 11.66 -2 12 C-2.05422947 10.5629191 -2.09289723 9.12524538 -2.125 7.6875 C-2.14820313 6.88699219 -2.17140625 6.08648437 -2.1953125 5.26171875 C-2 3 -2 3 0 0 Z " fill="#2F3F10" transform="translate(373,260)"/>
<path d="M0 0 C0.66 1.32 1.32 2.64 2 4 C-0.31 6.64 -2.62 9.28 -5 12 C-5.33 11.01 -5.66 10.02 -6 9 C-4.78515625 6.73828125 -4.78515625 6.73828125 -3.0625 4.3125 C-2.49660156 3.50425781 -1.93070312 2.69601563 -1.34765625 1.86328125 C-0.90292969 1.24839844 -0.45820313 0.63351563 0 0 Z " fill="#DFCCC2" transform="translate(268,223)"/>
<path d="M0 0 C0.66 0.33 1.32 0.66 2 1 C-1.3618226 5.25171681 -4.74828319 8.6381774 -9 12 C-9.66 11.67 -10.32 11.34 -11 11 C-7.6381774 6.74828319 -4.25171681 3.3618226 0 0 Z " fill="#E9DFDB" transform="translate(218,211)"/>
<path d="M0 0 C0.66 0.66 1.32 1.32 2 2 C0.42617053 3.65492374 -1.15942902 5.29866024 -2.75 6.9375 C-3.63171875 7.85402344 -4.5134375 8.77054687 -5.421875 9.71484375 C-7.80176695 11.82429343 -8.9099375 12.66067071 -12 13 C-11.319375 12.34 -10.63875 11.68 -9.9375 11 C-6.43274653 7.50531766 -3.22778212 3.74869221 0 0 Z " fill="#C1C0AE" transform="translate(342,335)"/>
<path d="M0 0 C1.76462683 3.08809695 2 4.23312136 2 8 C3.65 8 5.3 8 7 8 C7 8.66 7 9.32 7 10 C4.25913944 10.22223194 2.56036279 10.34781139 0.1875 8.875 C-1.50813053 6.19768863 -1.2694875 4.09910627 -1 1 C-0.67 0.67 -0.34 0.34 0 0 Z " fill="#8B4740" transform="translate(225,284)"/>
<path d="M0 0 C0.66 0.33 1.32 0.66 2 1 C0.52504318 3.33609323 -0.95468745 5.66890167 -2.4375 8 C-2.85837891 8.66773438 -3.27925781 9.33546875 -3.71289062 10.0234375 C-4.78188817 11.69962565 -5.88802605 13.35200837 -7 15 C-7.33 15 -7.66 15 -8 15 C-8.39190361 11.60146088 -8.15423648 10.23583033 -6.25 7.32421875 C-5.5075 6.45410156 -4.765 5.58398438 -4 4.6875 C-2.88625 3.36298828 -2.88625 3.36298828 -1.75 2.01171875 C-1.1725 1.34785156 -0.595 0.68398437 0 0 Z " fill="#8B4D46" transform="translate(278,223)"/>
<path d="M0 0 C0.99 0 1.98 0 3 0 C2.125 5.75 2.125 5.75 1 8 C0.01 7.67 -0.98 7.34 -2 7 C-2.125 4.625 -2.125 4.625 -2 2 C-1.34 1.34 -0.68 0.68 0 0 Z " fill="#344619" transform="translate(132,208)"/>
<path d="M0 0 C0.33 0 0.66 0 1 0 C1 2.97 1 5.94 1 9 C0.67 9 0.34 9 0 9 C-0.33 8.01 -0.66 7.02 -1 6 C-1.99 6.99 -2.98 7.98 -4 9 C-4.99 8.67 -5.98 8.34 -7 8 C-5.85760183 6.66372225 -4.71098945 5.33104612 -3.5625 4 C-2.92441406 3.2575 -2.28632813 2.515 -1.62890625 1.75 C-1.09136719 1.1725 -0.55382812 0.595 0 0 Z " fill="#863F35" transform="translate(305,174)"/>
<path d="M0 0 C0.33 0 0.66 0 1 0 C1.33 2.97 1.66 5.94 2 9 C3.32 8.67 4.64 8.34 6 8 C6.33 9.32 6.66 10.64 7 12 C4 12 4 12 0 11 C0 7.37 0 3.74 0 0 Z " fill="#E4DAD4" transform="translate(310,170)"/>
<path d="M0 0 C0.99 0.66 1.98 1.32 3 2 C3.375 5.5 3.375 5.5 3 9 C0 11 0 11 -4 11 C-4 10.34 -4 9.68 -4 9 C-2.35 9 -0.7 9 1 9 C0.67 6.03 0.34 3.06 0 0 Z " fill="#7D3D33" transform="translate(274,283)"/>
<path d="M0 0 C2 2 2 2 2.125 5.125 C2.08375 6.07375 2.0425 7.0225 2 8 C-0.6666419 9.33332095 -2.16680303 8.67102033 -5 8 C-4.67 7.34 -4.34 6.68 -4 6 C-3.01 6 -2.02 6 -1 6 C-0.67 4.02 -0.34 2.04 0 0 Z " fill="#7F2617" transform="translate(268,239)"/>
<path d="M0 0 C0.66 0.33 1.32 0.66 2 1 C1.75 4.375 1.75 4.375 1 8 C-1.0625 9.4375 -1.0625 9.4375 -3 10 C-3.66 8.02 -4.32 6.04 -5 4 C-3 4 -3 4 -1.375 5.5 C-0.92125 5.995 -0.4675 6.49 0 7 C0 4.69 0 2.38 0 0 Z " fill="#7F352B" transform="translate(291,161)"/>
<path d="M0 0 C1 2 1 2 0.875 4 C0 6 0 6 -2.375 7.375 C-3.674375 7.684375 -3.674375 7.684375 -5 8 C-5.99 7.34 -6.98 6.68 -8 6 C-5.36 4.02 -2.72 2.04 0 0 Z " fill="#803B33" transform="translate(285,296)"/>
<path d="M0 0 C0.33 1.32 0.66 2.64 1 4 C-1.31 5.98 -3.62 7.96 -6 10 C-5.58578031 5.16743695 -3.53586014 3.17320782 0 0 Z " fill="#722620" transform="translate(291,291)"/>
<path d="M0 0 C2 2 2 2 2.125 5.125 C2.08375 6.07375 2.0425 7.0225 2 8 C0.68 8.33 -0.64 8.66 -2 9 C-2.33 7.35 -2.66 5.7 -3 4 C-2.34 3.67 -1.68 3.34 -1 3 C-0.67 2.01 -0.34 1.02 0 0 Z " fill="#E5DED7" transform="translate(135,275)"/>
<path d="M0 0 C1.65 1.32 3.3 2.64 5 4 C4.67 5.32 4.34 6.64 4 8 C3.34 7.67 2.68 7.34 2 7 C1.375 4.4375 1.375 4.4375 1 2 C0.34 2 -0.32 2 -1 2 C-0.67 3.32 -0.34 4.64 0 6 C-0.99 5.34 -1.98 4.68 -3 4 C-2.67 3.01 -2.34 2.02 -2 1 C-1.34 0.67 -0.68 0.34 0 0 Z " fill="#873C36" transform="translate(321,192)"/>
<path d="M0 0 C-0.33 1.32 -0.66 2.64 -1 4 C-3.31 4 -5.62 4 -8 4 C-8 3.01 -8 2.02 -8 1 C-5.10765685 0.17361624 -3.11257569 0 0 0 Z " fill="#F9F8F5" transform="translate(222,171)"/>
<path d="M0 0 C0.33 1.32 0.66 2.64 1 4 C-0.98 4.33 -2.96 4.66 -5 5 C-5 4.01 -5 3.02 -5 2 C-5.99 1.67 -6.98 1.34 -8 1 C-5.23735711 0.40267181 -2.83967231 0 0 0 Z " fill="#49572E" transform="translate(288,367)"/>
<path d="M0 0 C0.99 0 1.98 0 3 0 C3 1.65 3 3.3 3 5 C1.35 5.33 -0.3 5.66 -2 6 C-1.125 1.125 -1.125 1.125 0 0 Z " fill="#F6F5F4" transform="translate(302,330)"/>
<path d="M0 0 C0.99 0 1.98 0 3 0 C2.67 2.64 2.34 5.28 2 8 C1.01 8.33 0.02 8.66 -1 9 C-0.67 6.03 -0.34 3.06 0 0 Z " fill="#2F410D" transform="translate(127,226)"/>
<path d="M0 0 C1.32 0.33 2.64 0.66 4 1 C3.67 2.98 3.34 4.96 3 7 C1.35 7 -0.3 7 -2 7 C-1.34 4.69 -0.68 2.38 0 0 Z " fill="#49562A" transform="translate(133,202)"/>
<path d="M0 0 C1.28222189 3.03070628 0.98589446 4.03596914 -0.25 7.1875 C-2 10 -2 10 -5 11 C-3.77472971 6.94718288 -2.30119506 3.55639236 0 0 Z " fill="#843F37" transform="translate(148,192)"/>
<path d="M0 0 C2.375 0.3125 2.375 0.3125 5 1 C5.66 1.99 6.32 2.98 7 4 C6.67 4.66 6.34 5.32 6 6 C4.125 5.8125 4.125 5.8125 2 5 C0.75 2.4375 0.75 2.4375 0 0 Z " fill="#F4F3EF" transform="translate(324,156)"/>
<path d="M0 0 C1.65 0.33 3.3 0.66 5 1 C5 2.65 5 4.3 5 6 C-0.75 4.25 -0.75 4.25 -3 2 C-2.01 2 -1.02 2 0 2 C0 1.34 0 0.68 0 0 Z " fill="#EAE2DD" transform="translate(302,141)"/>
<path d="M0 0 C6.75 -0.125 6.75 -0.125 9 1 C9 1.66 9 2.32 9 3 C6.03 3 3.06 3 0 3 C0 2.01 0 1.02 0 0 Z " fill="#FAF9FA" transform="translate(233,368)"/>
<path d="M0 0 C1.98 0.66 3.96 1.32 6 2 C5.34 3.32 4.68 4.64 4 6 C2.35 5.67 0.7 5.34 -1 5 C-0.67 3.35 -0.34 1.7 0 0 Z " fill="#4A5630" transform="translate(201,362)"/>
<path d="M0 0 C0.66 0 1.32 0 2 0 C1.67 1.98 1.34 3.96 1 6 C1.99 6 2.98 6 4 6 C3.67 6.99 3.34 7.98 3 9 C1.68 8.34 0.36 7.68 -1 7 C-1.04254356 5.00045254 -1.04080783 2.99958364 -1 1 C-0.67 0.67 -0.34 0.34 0 0 Z " fill="#FAF9F9" transform="translate(183,175)"/>
<path d="M0 0 C2 1 2 1 4 4 C2.02 4.66 0.04 5.32 -2 6 C-2.33 4.68 -2.66 3.36 -3 2 C-2.01 1.34 -1.02 0.68 0 0 Z " fill="#44522B" transform="translate(306,358)"/>
<path d="M0 0 C0.33 0.66 0.66 1.32 1 2 C0.34 2 -0.32 2 -1 2 C-1.0825 2.61875 -1.165 3.2375 -1.25 3.875 C-2 6 -2 6 -4.0625 7.25 C-5.0215625 7.62125 -5.0215625 7.62125 -6 8 C-6.33 7.01 -6.66 6.02 -7 5 C-2.25 1.125 -2.25 1.125 0 0 Z " fill="#F5F6F1" transform="translate(323,344)"/>
<path d="M0 0 C-2.64738916 1.4606285 -3.89448334 2 -7 2 C-8.03013277 3.64821244 -9.03114628 5.31503702 -10 7 C-10.66 7 -11.32 7 -12 7 C-9.44224096 -0.27977572 -7.78583476 -1.61592797 0 0 Z " fill="#E5D7D1" transform="translate(344,224)"/>
<path d="M0 0 C2.64 0.33 5.28 0.66 8 1 C7.34 1.66 6.68 2.32 6 3 C3.875 2.625 3.875 2.625 2 2 C2 3.65 2 5.3 2 7 C1.34 7 0.68 7 0 7 C0 4.69 0 2.38 0 0 Z " fill="#882215" transform="translate(206,176)"/>
<path d="M0 0 C-1.25842768 3.77528304 -2.62493429 4.10667045 -6 6 C-6.66 6.66 -7.32 7.32 -8 8 C-8.99 7.67 -9.98 7.34 -11 7 C-9.54634731 5.82750647 -8.08692581 4.66216184 -6.625 3.5 C-5.40683594 2.52546875 -5.40683594 2.52546875 -4.1640625 1.53125 C-2 0 -2 0 0 0 Z " fill="#7F342D" transform="translate(187,152)"/>
<path d="M0 0 C2.475 0.99 2.475 0.99 5 2 C4.67 3.32 4.34 4.64 4 6 C1.525 5.01 1.525 5.01 -1 4 C-0.67 2.68 -0.34 1.36 0 0 Z " fill="#F1F0EA" transform="translate(182,347)"/>
<path d="M0 0 C0.33 0.99 0.66 1.98 1 3 C0.01 3.33 -0.98 3.66 -2 4 C-2.309375 4.825 -2.61875 5.65 -2.9375 6.5 C-3.288125 7.325 -3.63875 8.15 -4 9 C-6.06640625 9.65625 -6.06640625 9.65625 -8 10 C-7.04367001 8.70684939 -6.08486149 7.41553147 -5.125 6.125 C-4.59132813 5.40570313 -4.05765625 4.68640625 -3.5078125 3.9453125 C-2 2 -2 2 0 0 Z " fill="#813C31" transform="translate(308,298)"/>
<path d="M0 0 C0.33 0.99 0.66 1.98 1 3 C0.01 3.33 -0.98 3.66 -2 4 C-2.12375 4.639375 -2.2475 5.27875 -2.375 5.9375 C-2.58125 6.618125 -2.7875 7.29875 -3 8 C-5.5625 9.25 -5.5625 9.25 -8 10 C-7.04367001 8.70684939 -6.08486149 7.41553147 -5.125 6.125 C-4.59132812 5.40570313 -4.05765625 4.68640625 -3.5078125 3.9453125 C-2 2 -2 2 0 0 Z " fill="#87433B" transform="translate(241,265)"/>
<path d="M0 0 C1.9375 0.6875 1.9375 0.6875 4 2 C4.75 4.625 4.75 4.625 5 7 C3.68 6.67 2.36 6.34 1 6 C0.67 4.02 0.34 2.04 0 0 Z " fill="#394818" transform="translate(364,204)"/>
<path d="M0 0 C1.32 0.66 2.64 1.32 4 2 C3.67 2.99 3.34 3.98 3 5 C0.69 5.33 -1.62 5.66 -4 6 C-2.68 4.02 -1.36 2.04 0 0 Z " fill="#EFE5E1" transform="translate(178,185)"/>
<path d="M0 0 C-0.33 1.32 -0.66 2.64 -1 4 C-2.32 4.33 -3.64 4.66 -5 5 C-5.33 3.68 -5.66 2.36 -6 1 C-4 0 -4 0 0 0 Z " fill="#F5F4EE" transform="translate(205,138)"/>
<path d="M0 0 C0.66 0.33 1.32 0.66 2 1 C1.67 2.32 1.34 3.64 1 5 C-0.98 5 -2.96 5 -5 5 C-4.1875 3.0625 -4.1875 3.0625 -3 1 C-2.01 0.67 -1.02 0.34 0 0 Z " fill="#354617" transform="translate(210,130)"/>
<path d="M0 0 C0.66 0.33 1.32 0.66 2 1 C0.50079488 4.11373372 -1.08152136 7.12228205 -3 10 C-3.66 10 -4.32 10 -5 10 C-3.66511872 6.40608886 -2.03977277 3.24509304 0 0 Z " fill="#E8DEDA" transform="translate(242,278)"/>
<path d="M0 0 C-3.11016455 3.28788824 -6.01618925 5.83735988 -10 8 C-7.95662621 2.18424383 -6.49689233 -0.52677505 0 0 Z " fill="#E7DCD8" transform="translate(266,249)"/>
<path d="M0 0 C0.99 0.66 1.98 1.32 3 2 C2.67 3.32 2.34 4.64 2 6 C1.01 6 0.02 6 -1 6 C-1.33 5.01 -1.66 4.02 -2 3 C-1.34 2.01 -0.68 1.02 0 0 Z " fill="#EBE2DC" transform="translate(320,198)"/>
<path d="M0 0 C1.32 0 2.64 0 4 0 C3.67 1.65 3.34 3.3 3 5 C1.68 5.33 0.36 5.66 -1 6 C-0.67 4.02 -0.34 2.04 0 0 Z " fill="#354419" transform="translate(135,198)"/>
<path d="M0 0 C2.125 0.9375 2.125 0.9375 4 2 C3.67 2.99 3.34 3.98 3 5 C2.01 5 1.02 5 0 5 C-0.66 3.68 -1.32 2.36 -2 1 C-1.34 0.67 -0.68 0.34 0 0 Z " fill="#842E28" transform="translate(327,187)"/>
<path d="M0 0 C0 3 0 3 -1 6 C-1.34227417 7.33106622 -1.67751743 8.66400079 -2 10 C-2.99 9.01 -3.98 8.02 -5 7 C-3.70700306 4.11562221 -2.34058637 2.12780579 0 0 Z " fill="#EDE1DD" transform="translate(169,183)"/>
<path d="M0 0 C0.33 1.32 0.66 2.64 1 4 C-0.21484375 5.921875 -0.21484375 5.921875 -1.9375 7.75 C-2.50339844 8.36359375 -3.06929687 8.9771875 -3.65234375 9.609375 C-4.31943359 10.29773438 -4.31943359 10.29773438 -5 11 C-5.66 10.67 -6.32 10.34 -7 10 C-3.535 5.05 -3.535 5.05 0 0 Z " fill="#E2E3D8" transform="translate(155,173)"/>
<path d="M0 0 C2.475 0.495 2.475 0.495 5 1 C5.33 1.99 5.66 2.98 6 4 C4.125 4.625 4.125 4.625 2 5 C1.34 4.34 0.68 3.68 0 3 C0 2.01 0 1.02 0 0 Z " fill="#3B4A1F" transform="translate(347,174)"/>
<path d="M0 0 C0.6875 1.75 0.6875 1.75 1 4 C-0.4375 6.25 -0.4375 6.25 -2 8 C-3 7 -3 7 -3.25 4.5625 C-3.1675 3.716875 -3.085 2.87125 -3 2 C-2.01 1.34 -1.02 0.68 0 0 Z " fill="#2F3E13" transform="translate(360,306)"/>
<path d="M0 0 C0.33 1.98 0.66 3.96 1 6 C-0.32 6.33 -1.64 6.66 -3 7 C-3.33 5.02 -3.66 3.04 -4 1 C-2 0 -2 0 0 0 Z " fill="#3C4B1F" transform="translate(135,288)"/>
<path d="M0 0 C2.93200474 2.85276137 5.64315404 5.65079784 8 9 C7.34 9.66 6.68 10.32 6 11 C4.9944239 9.54550599 3.99569565 8.08627557 3 6.625 C2.443125 5.81289062 1.88625 5.00078125 1.3125 4.1640625 C0 2 0 2 0 0 Z " fill="#8E514D" transform="translate(222,223)"/>
<path d="M0 0 C2.93200474 2.85276137 5.64315404 5.65079784 8 9 C7.34 9.66 6.68 10.32 6 11 C4.9944239 9.54550599 3.99569565 8.08627557 3 6.625 C2.443125 5.81289062 1.88625 5.00078125 1.3125 4.1640625 C0 2 0 2 0 0 Z " fill="#8F5A56" transform="translate(226,220)"/>
<path d="M0 0 C0.66 0 1.32 0 2 0 C2 0.99 2 1.98 2 3 C2.66 3.33 3.32 3.66 4 4 C2.625 6 2.625 6 1 8 C0.34 8 -0.32 8 -1 8 C-0.67 5.36 -0.34 2.72 0 0 Z " fill="#EEE6E2" transform="translate(274,220)"/>
<path d="M0 0 C0.33 0 0.66 0 1 0 C1 3.3 1 6.6 1 10 C0.01 10 -0.98 10 -2 10 C-1.46274105 6.62294375 -0.88935377 3.303314 0 0 Z " fill="#7A2217" transform="translate(273,160)"/>
<path d="M0 0 C0.66 0.33 1.32 0.66 2 1 C0.68 2.65 -0.64 4.3 -2 6 C-1.34 6.33 -0.68 6.66 0 7 C-1.98 7.99 -1.98 7.99 -4 9 C-4.33 7.35 -4.66 5.7 -5 4 C-3.35 2.68 -1.7 1.36 0 0 Z " fill="#E0DED4" transform="translate(178,151)"/>
<path d="M0 0 C1.65 0 3.3 0 5 0 C4.67 0.99 4.34 1.98 4 3 C1.4375 4.1875 1.4375 4.1875 -1 5 C-0.67 3.35 -0.34 1.7 0 0 Z " fill="#324314" transform="translate(190,139)"/>
<path d="M0 0 C0.66 0.33 1.32 0.66 2 1 C1.67 1.66 1.34 2.32 1 3 C1.99 3.33 2.98 3.66 4 4 C1.75 4.6875 1.75 4.6875 -1 5 C-3.3125 3.5625 -3.3125 3.5625 -5 2 C-2.625 0.9375 -2.625 0.9375 0 0 Z " fill="#435529" transform="translate(204,132)"/>
<path d="M0 0 C1.32 0.33 2.64 0.66 4 1 C4 2.65 4 4.3 4 6 C2.02 5.34 0.04 4.68 -2 4 C-1.34 2.68 -0.68 1.36 0 0 Z " fill="#434F27" transform="translate(192,358)"/>
<path d="M0 0 C1.485 0.99 1.485 0.99 3 2 C3.1875 4.625 3.1875 4.625 3 7 C1.68 6.34 0.36 5.68 -1 5 C-0.67 3.35 -0.34 1.7 0 0 Z " fill="#37451A" transform="translate(154,326)"/>
<path d="M0 0 C0.33 0 0.66 0 1 0 C1.33 3.96 1.66 7.92 2 12 C1.01 12.66 0.02 13.32 -1 14 C-0.67 9.38 -0.34 4.76 0 0 Z " fill="#DECDC4" transform="translate(337,275)"/>
<path d="M0 0 C0 2.31 0 4.62 0 7 C-0.99 7 -1.98 7 -3 7 C-3 5.02 -3 3.04 -3 1 C-1 0 -1 0 0 0 Z " fill="#344414" transform="translate(130,271)"/>
<path d="M0 0 C0 4.24645065 -1.81750806 6.38524772 -4 10 C-4.66 9.67 -5.32 9.34 -6 9 C-4.68775452 5.06326356 -3.08089673 2.77280706 0 0 Z " fill="#814945" transform="translate(282,226)"/>
<path d="M0 0 C1.65 0 3.3 0 5 0 C4.34 2.64 3.68 5.28 3 8 C1.0549 5.08235 0.54723683 3.37462715 0 0 Z " fill="#47542D" transform="translate(365,210)"/>
<path d="M0 0 C0.99 0 1.98 0 3 0 C3.625 1.875 3.625 1.875 4 4 C3.34 4.66 2.68 5.32 2 6 C1.01 5.67 0.02 5.34 -1 5 C-0.67 3.35 -0.34 1.7 0 0 Z " fill="#425026" transform="translate(137,193)"/>
<path d="M0 0 C1.32 0.66 2.64 1.32 4 2 C4 2.66 4 3.32 4 4 C1.625 4.625 1.625 4.625 -1 5 C-1.66 4.34 -2.32 3.68 -3 3 C-2.01 2.67 -1.02 2.34 0 2 C0 1.34 0 0.68 0 0 Z " fill="#F6F8F4" transform="translate(328,181)"/>
<path d="M0 0 C0.66 0.33 1.32 0.66 2 1 C-0.3125 3.5 -0.3125 3.5 -3 6 C-3.99 6 -4.98 6 -6 6 C-5 3 -5 3 -2.5625 1.25 C-1.716875 0.8375 -0.87125 0.425 0 0 Z " fill="#823A32" transform="translate(194,146)"/>
<path d="M0 0 C2.31 0.33 4.62 0.66 7 1 C5.25 2.5625 5.25 2.5625 3 4 C0.75 3.6875 0.75 3.6875 -1 3 C-0.67 2.01 -0.34 1.02 0 0 Z " fill="#F7F6F1" transform="translate(286,135)"/>
<path d="M0 0 C1.98 0 3.96 0 6 0 C5.67 0.99 5.34 1.98 5 3 C5.99 3.33 6.98 3.66 8 4 C5.36 3.67 2.72 3.34 0 3 C0 2.01 0 1.02 0 0 Z " fill="#414F27" transform="translate(261,372)"/>
<path d="M0 0 C1.65 0.33 3.3 0.66 5 1 C5 1.99 5 2.98 5 4 C4.01 4.33 3.02 4.66 2 5 C1.01 4.01 0.02 3.02 -1 2 C-0.67 1.34 -0.34 0.68 0 0 Z " fill="#F6F3F1" transform="translate(201,358)"/>
<path d="M0 0 C1.9375 0.625 1.9375 0.625 4 2 C4.75 5.125 4.75 5.125 5 8 C4.01 8 3.02 8 2 8 C1.34 5.36 0.68 2.72 0 0 Z " fill="#833F34" transform="translate(243,347)"/>
<path d="M0 0 C2.475 0.495 2.475 0.495 5 1 C5.33 2.32 5.66 3.64 6 5 C4.02 4.34 2.04 3.68 0 3 C0 2.01 0 1.02 0 0 Z " fill="#334118" transform="translate(169,344)"/>
<path d="M0 0 C0.66 0.33 1.32 0.66 2 1 C2.625 3.5625 2.625 3.5625 3 6 C2.34 6 1.68 6 1 6 C0.67 6.99 0.34 7.98 0 9 C-1.125 2.25 -1.125 2.25 0 0 Z " fill="#F1F3EE" transform="translate(138,290)"/>
<path d="M0 0 C0.99 0.66 1.98 1.32 3 2 C2.67 2.99 2.34 3.98 2 5 C0.35 4.67 -1.3 4.34 -3 4 C-3 3.34 -3 2.68 -3 2 C-2.01 1.34 -1.02 0.68 0 0 Z " fill="#813028" transform="translate(235,244)"/>
<path d="M0 0 C3.72940389 1.24313463 4.84656811 2.76985216 7 6 C6.67 6.99 6.34 7.98 6 9 C3.59927045 6.11912454 1.52708963 3.43595166 0 0 Z " fill="#8E5449" transform="translate(218,226)"/>
<path d="M0 0 C0 3.99904969 -1.72586967 5.80200422 -4 9 C-4.99 8.67 -5.98 8.34 -7 8 C-4.69 5.36 -2.38 2.72 0 0 Z " fill="#85514E" transform="translate(274,221)"/>
<path d="M0 0 C0.99 0.33 1.98 0.66 3 1 C3.33 1.99 3.66 2.98 4 4 C3.01 4.99 2.02 5.98 1 7 C0 6 0 6 -0.0625 2.9375 C-0.041875 1.968125 -0.02125 0.99875 0 0 Z " fill="#F5F5F2" transform="translate(360,204)"/>
<path d="M0 0 C3.16115776 1.36983503 3.9927092 1.9890638 6 5 C4.68 5.33 3.36 5.66 2 6 C1.34 4.02 0.68 2.04 0 0 Z " fill="#833228" transform="translate(168,194)"/>
<path d="M0 0 C0.99 0 1.98 0 3 0 C2.01 3.3 1.02 6.6 0 10 C-0.33 10 -0.66 10 -1 10 C-1.02689216 8.52093108 -1.04634621 7.04172517 -1.0625 5.5625 C-1.07410156 4.73878906 -1.08570313 3.91507813 -1.09765625 3.06640625 C-1 1 -1 1 0 0 Z " fill="#7E2F24" transform="translate(204,155)"/>
<path d="M0 0 C0.66 0.33 1.32 0.66 2 1 C2 1.99 2 2.98 2 4 C-0.31 4.33 -2.62 4.66 -5 5 C-3.625 3.5 -3.625 3.5 -2 2 C-1.34 2 -0.68 2 0 2 C0 1.34 0 0.68 0 0 Z " fill="#313F14" transform="translate(302,361)"/>
<path d="M0 0 C0.97791242 2.64036353 1.03638105 3.87266632 0.25 6.625 C-1 9 -1 9 -4 11 C-2.7874262 7.27566618 -1.49140021 3.62197194 0 0 Z " fill="#E0D1CC" transform="translate(303,275)"/>
<path d="M0 0 C0.33 0.66 0.66 1.32 1 2 C1.66 2.33 2.32 2.66 3 3 C1.625 5 1.625 5 0 7 C-0.66 7 -1.32 7 -2 7 C-1.125 1.125 -1.125 1.125 0 0 Z " fill="#EEE5DE" transform="translate(271,219)"/>
<path d="M0 0 C1.32 0 2.64 0 4 0 C3.67 0.99 3.34 1.98 3 3 C1.02 3.33 -0.96 3.66 -3 4 C-3 3.34 -3 2.68 -3 2 C-2.01 2 -1.02 2 0 2 C0 1.34 0 0.68 0 0 Z " fill="#762820" transform="translate(231,201)"/>
<path d="M0 0 C0.33 0.66 0.66 1.32 1 2 C1.66 2 2.32 2 3 2 C2.67 3.32 2.34 4.64 2 6 C0.68 5.34 -0.64 4.68 -2 4 C-1.34 2.68 -0.68 1.36 0 0 Z " fill="#E3D3D1" transform="translate(296,177)"/>
<path d="M0 0 C1.32 1.32 2.64 2.64 4 4 C3.67 4.66 3.34 5.32 3 6 C1.68 5.67 0.36 5.34 -1 5 C-0.67 3.35 -0.34 1.7 0 0 Z " fill="#F5F4F1" transform="translate(340,169)"/>
<path d="M0 0 C1.134375 0.020625 2.26875 0.04125 3.4375 0.0625 C3.4375 0.7225 3.4375 1.3825 3.4375 2.0625 C1.125 2.6875 1.125 2.6875 -1.5625 3.0625 C-2.5525 2.4025 -3.5425 1.7425 -4.5625 1.0625 C-3.5625 0.0625 -3.5625 0.0625 0 0 Z " fill="#FCF9FA" transform="translate(191.5625,165.9375)"/>
<path d="M0 0 C1.32 0.33 2.64 0.66 4 1 C3.67 2.32 3.34 3.64 3 5 C1.35 4.67 -0.3 4.34 -2 4 C-1.34 2.68 -0.68 1.36 0 0 Z " fill="#852218" transform="translate(266,160)"/>
<path d="M0 0 C1.98 0 3.96 0 6 0 C5.34 1.32 4.68 2.64 4 4 C2.68 3.67 1.36 3.34 0 3 C0 2.01 0 1.02 0 0 Z " fill="#F2F2ED" transform="translate(215,364)"/>
<path d="M0 0 C0 1.65 0 3.3 0 5 C-2.475 4.01 -2.475 4.01 -5 3 C-5 2.34 -5 1.68 -5 1 C-1.125 0 -1.125 0 0 0 Z " fill="#FBFAF3" transform="translate(253,347)"/>
<path d="M0 0 C0.99 0.33 1.98 0.66 3 1 C2.67 2.32 2.34 3.64 2 5 C1.01 5 0.02 5 -1 5 C-0.67 3.35 -0.34 1.7 0 0 Z " fill="#E8D6D0" transform="translate(269,343)"/>
<path d="M0 0 C1.32 0.33 2.64 0.66 4 1 C3.67 2.32 3.34 3.64 3 5 C2.01 4.67 1.02 4.34 0 4 C0 2.68 0 1.36 0 0 Z " fill="#E8D8D1" transform="translate(215,339)"/>
<path d="M0 0 C1.42944945 2.35438733 2.08661261 3.48032433 1.625 6.25 C1.41875 6.8275 1.2125 7.405 1 8 C-0.32 7.01 -1.64 6.02 -3 5 C-2.01 3.35 -1.02 1.7 0 0 Z " fill="#404C29" transform="translate(356,309)"/>
<path d="M0 0 C0.33 0 0.66 0 1 0 C1.25 3.3125 1.25 3.3125 1 7 C-1 8.9375 -1 8.9375 -3 10 C-3.99 9.34 -4.98 8.68 -6 8 C-5.195625 7.79375 -4.39125 7.5875 -3.5625 7.375 C-2.716875 6.92125 -1.87125 6.4675 -1 6 C-0.10169161 2.94727535 -0.10169161 2.94727535 0 0 Z " fill="#E5DAD2" transform="translate(277,286)"/>
<path d="M0 0 C0.99 0 1.98 0 3 0 C3 1.32 3 2.64 3 4 C1.35 4 -0.3 4 -2 4 C-1.34 2.68 -0.68 1.36 0 0 Z " fill="#7D2415" transform="translate(272,288)"/>
<path d="M0 0 C0.66 0 1.32 0 2 0 C2 1.65 2 3.3 2 5 C1.01 5.33 0.02 5.66 -1 6 C-1.33 6.66 -1.66 7.32 -2 8 C-2 6.68 -2 5.36 -2 4 C-1.34 4 -0.68 4 0 4 C0 2.68 0 1.36 0 0 Z " fill="#415026" transform="translate(128,266)"/>
<path d="M0 0 C0.99 0.66 1.98 1.32 3 2 C2.34 3.32 1.68 4.64 1 6 C0.34 6 -0.32 6 -1 6 C-1.33 5.01 -1.66 4.02 -2 3 C-1.34 2.01 -0.68 1.02 0 0 Z " fill="#E2CFCB" transform="translate(327,192)"/>
<path d="M0 0 C0.33 0.99 0.66 1.98 1 3 C1.66 3 2.32 3 3 3 C2.67 4.32 2.34 5.64 2 7 C1.67 6.01 1.34 5.02 1 4 C-1.01508358 3.26676204 -1.01508358 3.26676204 -3 3 C-2.01 2.01 -1.02 1.02 0 0 Z " fill="#843D37" transform="translate(316,182)"/>
<path d="M0 0 C1.65 0 3.3 0 5 0 C5 0.99 5 1.98 5 3 C3.35 3.33 1.7 3.66 0 4 C0 2.68 0 1.36 0 0 Z " fill="#802017" transform="translate(317,181)"/>
<path d="M0 0 C0.66 1.32 1.32 2.64 2 4 C0.68 4.99 -0.64 5.98 -2 7 C-3.32 6.34 -4.64 5.68 -6 5 C-3 4 -3 4 0 4 C0 2.68 0 1.36 0 0 Z " fill="#873B33" transform="translate(301,166)"/>
<path d="M0 0 C1.98 0 3.96 0 6 0 C5.67 0.99 5.34 1.98 5 3 C3.35 3 1.7 3 0 3 C0 2.01 0 1.02 0 0 Z " fill="#F8FAF5" transform="translate(264,167)"/>
<path d="M0 0 C1.98 0 3.96 0 6 0 C6.33 1.65 6.66 3.3 7 5 C6.01 5 5.02 5 4 5 C1.8125 2.5 1.8125 2.5 0 0 Z " fill="#853C38" transform="translate(199,166)"/>
<path d="M0 0 C1.98 0.495 1.98 0.495 4 1 C3.67 2.65 3.34 4.3 3 6 C1.68 4.68 0.36 3.36 -1 2 C-0.67 1.34 -0.34 0.68 0 0 Z " fill="#EDE7E6" transform="translate(329,160)"/>
<path d="M0 0 C7.50769231 -0.36923077 7.50769231 -0.36923077 10 1.5 C10.495 2.2425 10.495 2.2425 11 3 C9 4 9 4 6.8359375 3.44140625 C6.02382813 3.15136719 5.21171875 2.86132812 4.375 2.5625 C3.55773437 2.27503906 2.74046875 1.98757812 1.8984375 1.69140625 C1.27195312 1.46324219 0.64546875 1.23507813 0 1 C0 0.67 0 0.34 0 0 Z " fill="#843B34" transform="translate(284,152)"/>
</svg>
